<svg width="50" height="50" viewBox="0 0 50 50" fill="none" xmlns="http://www.w3.org/2000/svg">
<rect width="50" height="50" rx="25" fill="white"/>
<rect x="1.5" y="1.5" width="47" height="47" rx="23.5" stroke="black" stroke-opacity="0.26" stroke-width="3"/>
<path d="M32.6727 20.7371C31.243 19.303 29.2401 18.4085 27.0541 18.4098H24.1894V17.9652V15L16.8246 20.9886L24.1894 26.9778V23.922V23.599H27.0541C27.8234 23.6003 28.4964 23.9036 29.0036 24.4059C29.5062 24.9134 29.8096 25.5861 29.8109 26.3557C29.8096 27.1253 29.5062 27.798 29.0036 28.3048C28.4964 28.8078 27.8234 29.1111 27.0541 29.1125H15V34.3016H27.0541C29.2401 34.3029 31.243 33.4084 32.6727 31.9743C34.1062 30.5446 35.0013 28.5417 35 26.3557C35.0013 24.1697 34.1062 22.1668 32.6727 20.7371Z" fill="black" fill-opacity="0.26"/>
</svg>
