<svg width="40" height="32" viewBox="0 0 40 32" fill="none" xmlns="http://www.w3.org/2000/svg">
<path d="M20.0001 13.1202C17.3169 13.1202 15.1441 15.3138 15.1441 18.0202C15.1441 20.7265 17.317 22.9201 20.0001 22.9201C22.6831 22.9201 24.856 20.7265 24.856 18.0202C24.856 15.3138 22.6832 13.1202 20.0001 13.1202Z" fill="#4B8E8D"/>
<path d="M37.4037 6.16095H32.8236C31.8019 6.16095 30.8753 5.55548 30.4566 4.61556L29.0858 1.54422C28.6671 0.60547 27.7394 0 26.7176 0H13.2825C12.2608 0 11.3331 0.60547 10.9131 1.54422L9.54353 4.61556C9.12478 5.55548 8.1983 6.16095 7.1765 6.16095H2.59641C1.16211 6.16095 0 7.33408 0 8.77939V28.4926C0 29.9379 1.16211 31.111 2.59641 31.111H21.6785H37.4036C38.8367 31.111 40 29.9379 40 28.4926V8.77939C40.0001 7.33408 38.8367 6.16095 37.4037 6.16095ZM20 27.1058C15.0244 27.1058 10.9924 23.0384 10.9924 18.0201C10.9924 13.0018 15.0245 8.93314 20 8.93314C24.9756 8.93314 29.0076 13.0017 29.0076 18.0201C29.0076 23.0385 24.9757 27.1058 20 27.1058Z" fill="#4B8E8D"/>
</svg>
