<svg width="40" height="40" viewBox="0 0 40 40" fill="none" xmlns="http://www.w3.org/2000/svg">
<rect x="1.5" y="1.5" width="37" height="37" rx="18.5" stroke="white" stroke-width="3"/>
<path d="M27.8269 17.2729H24.3767L21.7268 12.9701C21.6062 13.2699 21.4091 13.5319 21.1593 13.7289L23.3382 17.273H16.659L18.8385 13.7289C18.5915 13.5319 18.3945 13.2699 18.2709 12.9701L15.621 17.273H12.1709C10.9708 17.2758 10 18.2464 10 19.4464V24.5142C10 25.7142 10.9708 26.6847 12.1709 26.6847H27.8269C29.0269 26.6847 29.9971 25.7142 30 24.5142V19.4464C29.9971 18.2464 29.0269 17.2758 27.8269 17.2729ZM28.8235 24.5142C28.8207 24.7905 28.7121 25.0346 28.5294 25.217C28.3473 25.3994 28.1031 25.5083 27.8269 25.5083H12.1709C11.8946 25.5083 11.6504 25.3994 11.4677 25.217C11.2856 25.0346 11.1765 24.7905 11.1765 24.5142V19.4464C11.1765 19.1701 11.2856 18.926 11.4677 18.7436C11.6504 18.5612 11.8946 18.4523 12.1709 18.4495H14.8972H15.9352H24.062H25.1H27.8269C28.1032 18.4524 28.3473 18.5612 28.5294 18.7436C28.7121 18.926 28.8207 19.1701 28.8236 19.4464V24.5142H28.8235Z" fill="white"/>
<path d="M14.7186 21.1351C15.0276 21.1351 15.2034 21.3195 15.3051 21.5412C15.3143 21.5642 15.3373 21.5783 15.3648 21.5642L15.7577 21.3752C15.7807 21.3658 15.7899 21.3428 15.7807 21.3195C15.6003 20.9042 15.2218 20.6454 14.7185 20.6454C14.1872 20.6454 13.7903 20.9041 13.6288 21.4166C13.5639 21.6107 13.5455 21.7676 13.5455 22.2662C13.5455 22.7651 13.5639 22.9222 13.6288 23.1161C13.7903 23.6288 14.1872 23.8873 14.7185 23.8873C15.2218 23.8873 15.6003 23.6287 15.7807 23.2129C15.7899 23.1899 15.7807 23.1669 15.7577 23.1577L15.3648 22.9681C15.3373 22.9544 15.3143 22.9681 15.3051 22.9911C15.2034 23.2128 15.0276 23.3978 14.7186 23.3978C14.4181 23.3978 14.2429 23.2361 14.1551 22.9819C14.1137 22.8527 14.0999 22.728 14.0999 22.2662C14.0999 21.8043 14.1137 21.6797 14.1551 21.5504C14.243 21.2965 14.4181 21.1351 14.7186 21.1351Z" fill="white"/>
<path d="M18.3071 23.3467H16.8664C16.848 23.3467 16.8389 23.3375 16.8389 23.3191V20.7421C16.8389 20.7146 16.8205 20.6962 16.7923 20.6962H16.3402C16.3121 20.6962 16.2937 20.7145 16.2937 20.7421V23.7902C16.2937 23.8177 16.3121 23.8364 16.3402 23.8364H18.3071C18.3347 23.8364 18.3537 23.8177 18.3537 23.7902V23.3932C18.3537 23.3653 18.3347 23.3467 18.3071 23.3467Z" fill="white"/>
<path d="M19.9104 20.6454C19.3699 20.6454 18.9637 20.9041 18.8023 21.4028C18.7374 21.5966 18.719 21.7721 18.719 22.2662C18.719 22.7605 18.7374 22.936 18.8023 23.1298C18.9637 23.6287 19.3699 23.8873 19.9104 23.8873C20.4556 23.8873 20.8617 23.6287 21.0231 23.1298C21.0881 22.936 21.1064 22.7605 21.1064 22.2662C21.1064 21.7721 21.0881 21.5966 21.0231 21.4028C20.8617 20.9041 20.4556 20.6454 19.9104 20.6454ZM20.4969 22.9866C20.409 23.2408 20.2247 23.3979 19.9104 23.3979C19.6008 23.3979 19.4164 23.2408 19.3285 22.9866C19.2917 22.8711 19.2733 22.7097 19.2733 22.2662C19.2733 21.8184 19.2917 21.6613 19.3285 21.5459C19.4164 21.2919 19.6008 21.1351 19.9104 21.1351C20.2247 21.1351 20.4091 21.2919 20.4969 21.5459C20.5337 21.6613 20.5521 21.8184 20.5521 22.2662C20.5521 22.7096 20.5337 22.871 20.4969 22.9866Z" fill="white"/>
<path d="M22.9406 22.003L22.7746 21.9801C22.3495 21.9198 22.1973 21.7721 22.1973 21.555C22.1973 21.3103 22.3725 21.135 22.6913 21.135C22.9544 21.135 23.1899 21.2132 23.4438 21.3798C23.4674 21.3935 23.4904 21.389 23.5088 21.3657L23.7305 21.0242C23.7489 20.9963 23.7443 20.9777 23.7213 20.9593C23.472 20.77 23.0974 20.6454 22.7051 20.6454C22.0588 20.6454 21.6429 21.0243 21.6429 21.5921C21.6429 22.1139 21.9847 22.4049 22.5896 22.4879L22.7562 22.5109C23.1899 22.5712 23.3284 22.7189 23.3284 22.9452C23.3284 23.2083 23.1118 23.3978 22.7372 23.3978C22.3862 23.3978 22.0864 23.2266 21.883 23.0652C21.8646 23.0468 21.837 23.0468 21.8186 23.0698L21.532 23.4024C21.5136 23.4254 21.5228 23.453 21.5412 23.4716C21.7859 23.7023 22.234 23.8873 22.6959 23.8873C23.4766 23.8873 23.8781 23.4716 23.8781 22.913C23.8781 22.3724 23.5455 22.0864 22.9406 22.003Z" fill="white"/>
<path d="M26.4321 20.6962H24.4652C24.4376 20.6962 24.4192 20.7145 24.4192 20.7421V23.7902C24.4192 23.8177 24.4376 23.8364 24.4652 23.8364H26.4321C26.4602 23.8364 26.4786 23.8177 26.4786 23.7902V23.3932C26.4786 23.3653 26.4602 23.3467 26.4321 23.3467H24.9919C24.9729 23.3467 24.9638 23.3375 24.9638 23.3191V22.5249C24.9638 22.5062 24.973 22.4971 24.9919 22.4971H26.2063C26.2339 22.4971 26.2523 22.4787 26.2523 22.4511V22.0539C26.2523 22.026 26.2339 22.0076 26.2063 22.0076H24.9919C24.9729 22.0076 24.9638 21.9984 24.9638 21.98V21.2131C24.9638 21.1947 24.973 21.1855 24.9919 21.1855H26.4321C26.4602 21.1855 26.4786 21.1672 26.4786 21.1396V20.7421C26.4786 20.7146 26.4602 20.6962 26.4321 20.6962Z" fill="white"/>
<path d="M19.9988 13.5488C20.7025 13.5488 21.2729 12.9784 21.2729 12.2744C21.2729 11.5704 20.7025 11 19.9988 11C19.2946 11 18.7241 11.5705 18.7241 12.2744C18.7241 12.9784 19.2946 13.5488 19.9988 13.5488Z" fill="white"/>
</svg>
