<svg width="40" height="40" viewBox="0 0 40 40" fill="none" xmlns="http://www.w3.org/2000/svg">
<path d="M27.5551 4.88843H12.4449C5.57195 4.88843 0 10.4604 0 17.3324C0 24.2063 5.57195 29.7783 12.4449 29.7783H24.3332C26.1113 29.7783 26.667 30.604 26.667 31.2798C26.667 32.2791 26.1475 33.217 24.8898 34.1133C24.1109 34.668 24.7235 35.1116 25.3343 35.1116C33.2779 35.1116 39.9999 26.4443 39.9999 17.3324C40 10.4604 34.429 4.88843 27.5551 4.88843ZM10.5511 19.696C9.24469 19.696 8.1875 18.638 8.1875 17.3324C8.1875 16.0269 9.24461 14.9698 10.5511 14.9698C11.8558 14.9698 12.913 16.0269 12.913 17.3324C12.913 18.638 11.8559 19.696 10.5511 19.696ZM20 19.696C18.6954 19.696 17.6364 18.638 17.6364 17.3324C17.6364 16.0269 18.6954 14.9698 20 14.9698C21.3047 14.9698 22.3636 16.0269 22.3636 17.3324C22.3636 18.638 21.3047 19.696 20 19.696ZM29.4489 19.696C28.1443 19.696 27.0872 18.638 27.0872 17.3324C27.0872 16.0269 28.1443 14.9698 29.4489 14.9698C30.7554 14.9698 31.8125 16.0269 31.8125 17.3324C31.8125 18.638 30.7553 19.696 29.4489 19.696Z" fill="#C2C7C6"/>
</svg>
