<svg width="30" height="30" viewBox="0 0 30 30" fill="none" xmlns="http://www.w3.org/2000/svg">
<g opacity="0.9">
<rect width="30" height="30" rx="15" fill="#CC544D"/>
<path d="M21.1595 8.34612C21.1595 8.34612 21.2596 8.41676 19.7017 7.94361C18.305 7.51964 16.9839 7.42865 16.9839 7.42865L16.8924 6.77955C16.8294 6.33157 16.4627 6 16.0307 6H14.9997H13.9687C13.5373 6 13.1705 6.33157 13.107 6.77955L13.0154 7.42865C13.0154 7.42865 11.6949 7.51964 10.2983 7.94361C8.73973 8.41679 8.83987 8.34612 8.83987 8.34612C8.49259 8.44195 8.25 8.7718 8.25 9.14885V9.71043H14.9997H21.75V9.14885C21.75 8.7718 21.5074 8.44195 21.1595 8.34612Z" fill="white"/>
<path d="M9.36885 21.6324C9.44837 22.5324 10.2022 23.2224 11.1059 23.2224H18.8938C19.7972 23.2224 20.5514 22.5324 20.6309 21.6324L21.4934 10.6259H8.50635L9.36885 21.6324ZM17.8934 13.0607C17.9105 12.778 18.1534 12.5626 18.4361 12.5798C18.7187 12.5969 18.9339 12.8398 18.917 13.1225L18.4295 21.1784C18.4123 21.4611 18.1694 21.6762 17.8868 21.6591C17.6042 21.6419 17.3888 21.3993 17.4059 21.1167L17.8934 13.0607ZM14.4871 13.0916C14.4871 12.8083 14.7165 12.5789 14.9997 12.5789C15.2829 12.5789 15.5123 12.8083 15.5123 13.0916V21.1475C15.5123 21.4307 15.2829 21.6601 14.9997 21.6601C14.7165 21.6601 14.4871 21.4307 14.4871 21.1475V13.0916V13.0916ZM11.5634 12.5798C11.846 12.5626 12.0889 12.778 12.1061 13.0607L12.5941 21.1166C12.6113 21.3992 12.3959 21.6418 12.1132 21.659C11.8306 21.6761 11.5877 21.461 11.5705 21.1784L11.0825 13.1224C11.0653 12.8398 11.2807 12.5969 11.5634 12.5798Z" fill="white"/>
</g>
</svg>
