<svg width="40" height="40" viewBox="0 0 40 40" fill="none" xmlns="http://www.w3.org/2000/svg">
<path d="M0 0H30C35.5228 0 40 4.47715 40 10V40H10C4.47715 40 0 35.5228 0 30V0Z" fill="#CC544D"/>
<path d="M28.2127 11.1282C28.2127 11.1282 28.3462 11.2223 26.2689 10.5915C24.4067 10.0262 22.6452 9.90487 22.6452 9.90487L22.5232 9.0394C22.4392 8.44209 21.9502 8 21.3743 8H19.9996H18.6249C18.0497 8 17.5606 8.44209 17.476 9.0394L17.3539 9.90487C17.3539 9.90487 15.5932 10.0262 13.731 10.5915C11.653 11.2224 11.7865 11.1282 11.7865 11.1282C11.3235 11.2559 11 11.6957 11 12.1985V12.9472H19.9996H29V12.1985C29 11.6957 28.6765 11.2559 28.2127 11.1282Z" fill="white"/>
<path d="M12.4918 28.8432C12.5978 30.0432 13.6029 30.9633 14.8079 30.9633H25.1917C26.3963 30.9633 27.4018 30.0432 27.5078 28.8432L28.6578 14.1678H11.3418L12.4918 28.8432ZM23.8578 17.4142C23.8807 17.0374 24.2045 16.7501 24.5814 16.7731C24.9582 16.7959 25.2451 17.1198 25.2226 17.4967L24.5726 28.2379C24.5498 28.6148 24.2259 28.9016 23.8491 28.8788C23.4722 28.8559 23.185 28.5324 23.2079 28.1556L23.8578 17.4142ZM19.3161 17.4554C19.3161 17.0778 19.622 16.7719 19.9996 16.7719C20.3772 16.7719 20.6831 17.0778 20.6831 17.4554V28.1967C20.6831 28.5743 20.3772 28.8802 19.9996 28.8802C19.6219 28.8802 19.3161 28.5743 19.3161 28.1967V17.4554V17.4554ZM15.4178 16.7731C15.7947 16.7502 16.1185 17.0374 16.1414 17.4142L16.7921 28.1555C16.815 28.5323 16.5278 28.8558 16.1509 28.8787C15.7741 28.9015 15.4502 28.6147 15.4273 28.2379L14.7766 17.4966C14.7537 17.1198 15.0409 16.7959 15.4178 16.7731Z" fill="white"/>
</svg>
