<svg width="104" height="91" viewBox="0 0 104 91" fill="none" xmlns="http://www.w3.org/2000/svg">
<path d="M60.4601 73.2245L58.9951 72.8898L54.8094 87.6582L56.7767 87.4071L57.3627 85.7755L60.4601 73.2245Z" fill="#E0861A"/>
<path d="M60.4601 73.2245L58.9951 72.8898L54.8094 87.6582L56.7767 87.4071L57.3627 85.7755L60.4601 73.2245Z" fill="#E0861A"/>
<path d="M91.4763 59.2929L79.2959 45.6541L70.3384 39.8388L58.4091 34.6092L48.9913 32.5592L42.629 26.1582L44.973 36.3245L51.0423 38.8765L51.419 41.6796L63.5157 43.3949L71.4686 48.4572L67.0736 49.8378L73.7289 58.3725L83.3141 62.8072L88.337 73.4337L90.9322 66.1541L91.4763 59.2929Z" fill="#E6E6E6"/>
<path d="M91.4763 59.2929L79.2959 45.6541L70.3384 39.8388L58.4091 34.6092L48.9913 32.5592L42.629 26.1582L44.973 36.3245L51.0423 38.8765L51.419 41.6796L63.5157 43.3949L71.4686 48.4572L67.0736 49.8378L73.7289 58.3725L83.3141 62.8072L88.337 73.4337L90.9322 66.1541L91.4763 59.2929Z" fill="#E6E6E6"/>
<path d="M40.1176 54.0633L36.769 47.6622L31.8717 50.1725L31.5787 52.3898L38.8618 60.6316L53.5956 68.4133H56.2326H57.7394L64.4784 72.3459L75.1939 75.3163L48.3634 61.9704L40.1176 54.0633Z" fill="#E6E6E6"/>
<path d="M40.1176 54.0633L36.769 47.6622L31.8717 50.1725L31.5787 52.3898L38.8618 60.6316L53.5956 68.4133H56.2326H57.7394L64.4784 72.3459L75.1939 75.3163L48.3634 61.9704L40.1176 54.0633Z" fill="#E6E6E6"/>
<path d="M73.7289 58.3724L67.0736 49.8378L71.4686 48.4571L63.5157 43.3949L51.419 41.6796L51.0423 38.8765L44.973 36.3245L37.8573 41.9306L36.769 47.6622L40.1176 54.0633L48.3634 61.9704L75.1939 75.3163L85.2814 79.2071L88.7137 76.6969L88.337 73.4337L83.3141 62.8071L73.7289 58.3724Z" fill="#9B8579"/>
<path d="M73.7289 58.3724L67.0736 49.8378L71.4686 48.4571L63.5157 43.3949L51.419 41.6796L51.0423 38.8765L44.973 36.3245L37.8573 41.9306L36.769 47.6622L40.1176 54.0633L48.3634 61.9704L75.1939 75.3163L85.2814 79.2071L88.7137 76.6969L88.337 73.4337L83.3141 62.8071L73.7289 58.3724Z" fill="#9B8579"/>
<path d="M103.238 64.7735L98.3409 64.5643L91.4763 59.2928L90.9322 66.1541L88.337 73.4337L100.978 68.4133L103.238 64.7735Z" fill="#9B8579"/>
<path d="M103.238 64.7735L98.3409 64.5643L91.4763 59.2928L90.9322 66.1541L88.337 73.4337L100.978 68.4133L103.238 64.7735Z" fill="#9B8579"/>
<path d="M64.9807 74.2286L71.9709 75.7765L75.1939 75.3163L64.4784 72.3459L64.9807 74.2286Z" fill="#CCCCCC"/>
<path d="M64.9807 74.2286L71.9709 75.7765L75.1939 75.3163L64.4784 72.3459L64.9807 74.2286Z" fill="#CCCCCC"/>
<path d="M60.4601 73.2245H60.502L53.5956 70.1286V68.4133L38.8619 60.6316L31.5787 52.3898L31.1183 55.6112L38.6944 63.0582L51.4609 71.2163L56.4418 72.3041L58.9951 72.8898L60.4601 73.2245Z" fill="#CCCCCC"/>
<path d="M60.4601 73.2245H60.502L53.5956 70.1286V68.4133L38.8619 60.6316L31.5787 52.3898L31.1183 55.6112L38.6944 63.0582L51.4609 71.2163L56.4418 72.3041L58.9951 72.8898L60.4601 73.2245Z" fill="#CCCCCC"/>
<path d="M63.7668 73.4337L56.2326 68.4133H53.5956V70.1286L60.502 73.2245L62.2181 75.2327L64.5621 85.7337L63.5576 86.5704L56.7767 87.4071L54.8094 87.6582L58.9951 72.8898L56.4418 72.3041L53.47 83.8092L52.4654 84.6459L43.4243 85.7337L42.8383 88.3276L45.3497 88.1184L45.1823 89.0806L47.3589 88.5786H54.3071L53.9304 90.2521L56.4418 90.001L56.2744 90.9633L58.4929 90.5031H65.19L66.8224 87.0306L63.7668 73.4337Z" fill="#F7941E"/>
<path d="M63.7668 73.4337L56.2326 68.4133H53.5956V70.1286L60.502 73.2245L62.2181 75.2327L64.5621 85.7337L63.5576 86.5704L56.7767 87.4071L54.8094 87.6582L58.9951 72.8898L56.4418 72.3041L53.47 83.8092L52.4654 84.6459L43.4243 85.7337L42.8383 88.3276L45.3497 88.1184L45.1823 89.0806L47.3589 88.5786H54.3071L53.9304 90.2521L56.4418 90.001L56.2744 90.9633L58.4929 90.5031H65.19L66.8224 87.0306L63.7668 73.4337Z" fill="#F7941E"/>
<path d="M57.7394 68.4133H56.2326L63.7668 73.4337L66.8224 87.0306L65.19 90.5031H67.4921L68.4548 87.7L64.9807 74.2286L64.4784 72.3459L57.7394 68.4133Z" fill="#E0861A"/>
<path d="M57.7394 68.4133H56.2326L63.7668 73.4337L66.8224 87.0306L65.19 90.5031H67.4921L68.4548 87.7L64.9807 74.2286L64.4784 72.3459L57.7394 68.4133Z" fill="#E0861A"/>
<path d="M12.4919 3.73367L15.8823 1.05612L20.068 0.470413L15.8823 1.05612L12.4919 3.73367L9.64556 8.41939L1.27414 12.1847L9.64556 8.41939L12.4919 3.73367Z" fill="#806C6E"/>
<path d="M12.4919 3.73367L15.8823 1.05612L20.068 0.470413L15.8823 1.05612L12.4919 3.73367L9.64556 8.41939L1.27414 12.1847L9.64556 8.41939L12.4919 3.73367Z" fill="#806C6E"/>
<path d="M0.730011 13.8163L1.27414 12.1847L0.730011 13.8163Z" fill="#806C6E"/>
<path d="M0.730011 13.8163L1.27414 12.1847L0.730011 13.8163Z" fill="#806C6E"/>
<path d="M31.5787 52.3898L31.8717 50.1725L36.769 47.6622L37.8573 41.9306L44.973 36.3245L42.629 26.1582L40.7036 21.7653L39.8664 19.8408L33.3367 23.7735L29.2347 24.9867L29.8207 27.0786L27.0582 38.7929L26.7233 46.951L29.4022 53.8959L31.1183 55.6112L31.5787 52.3898Z" fill="#806C6E"/>
<path d="M31.5787 52.3898L31.8717 50.1725L36.769 47.6622L37.8573 41.9306L44.973 36.3245L42.629 26.1582L40.7036 21.7653L39.8664 19.8408L33.3367 23.7735L29.2347 24.9867L29.8207 27.0786L27.0582 38.7929L26.7233 46.951L29.4022 53.8959L31.1183 55.6112L31.5787 52.3898Z" fill="#806C6E"/>
<path d="M32.96 22.7694L39.4897 19.0041L39.7409 19.5898L38.7782 17.3306L32.7089 8.21021L25.5094 2.10204L20.0262 0.428574L15.8823 1.01429L12.4919 3.69184L9.64557 8.37755L11.7384 6.74592L10.9013 9.17245L11.0269 11.4735L12.9523 12.5612L15.1707 13.7745L21.24 17.7071L25.635 19.1714L28.7324 23.1877L28.9417 23.9408L32.96 22.7694ZM18.4774 6.4949C17.5147 6.4949 16.7194 5.90918 16.7194 5.2398C16.7194 4.52857 17.5147 3.9847 18.4774 3.9847C19.4401 3.9847 20.2354 4.57041 20.2354 5.2398C20.2354 5.95102 19.4401 6.4949 18.4774 6.4949Z" fill="#2C755A"/>
<path d="M32.96 22.7694L39.4897 19.0041L39.7409 19.5898L38.7782 17.3306L32.7089 8.21021L25.5094 2.10204L20.0262 0.428574L15.8823 1.01429L12.4919 3.69184L9.64557 8.37755L11.7384 6.74592L10.9013 9.17245L11.0269 11.4735L12.9523 12.5612L15.1707 13.7745L21.24 17.7071L25.635 19.1714L28.7324 23.1877L28.9417 23.9408L32.96 22.7694ZM18.4774 6.4949C17.5147 6.4949 16.7194 5.90918 16.7194 5.2398C16.7194 4.52857 17.5147 3.9847 18.4774 3.9847C19.4401 3.9847 20.2354 4.57041 20.2354 5.2398C20.2354 5.95102 19.4401 6.4949 18.4774 6.4949Z" fill="#2C755A"/>
<path d="M11.0269 11.5153L10.9013 9.21429L11.7384 6.82961L9.64558 8.4194L1.27415 12.1847L0.730011 13.8163H4.99944L12.9523 12.5612L11.0269 11.5153Z" fill="#FBB040"/>
<path d="M11.0269 11.5153L10.9013 9.21429L11.7384 6.82961L9.64558 8.4194L1.27415 12.1847L0.730011 13.8163H4.99944L12.9523 12.5612L11.0269 11.5153Z" fill="#FBB040"/>
<path d="M12.9523 12.5612L4.99944 13.8163H15.1707L12.9523 12.5612Z" fill="#F7941E"/>
<path d="M12.9523 12.5612L4.99944 13.8163H15.1707L12.9523 12.5612Z" fill="#F7941E"/>
<path d="M39.8664 19.8408L40.7036 21.7653L39.7827 19.7153L39.4897 19.0041L32.96 22.7694L28.9417 23.9408L29.2347 24.9867L33.3367 23.7735L39.8664 19.8408Z" fill="#E6E6E6"/>
<path d="M39.8664 19.8408L40.7036 21.7653L39.7827 19.7153L39.4897 19.0041L32.96 22.7694L28.9417 23.9408L29.2347 24.9867L33.3367 23.7735L39.8664 19.8408Z" fill="#E6E6E6"/>
<path d="M18.4774 6.4949C19.4483 6.4949 20.2354 5.93297 20.2354 5.2398C20.2354 4.54662 19.4483 3.9847 18.4774 3.9847C17.5065 3.9847 16.7194 4.54662 16.7194 5.2398C16.7194 5.93297 17.5065 6.4949 18.4774 6.4949Z" fill="#1A1A1A"/>
<path d="M18.4774 6.4949C19.4483 6.4949 20.2354 5.93297 20.2354 5.2398C20.2354 4.54662 19.4483 3.9847 18.4774 3.9847C17.5065 3.9847 16.7194 4.54662 16.7194 5.2398C16.7194 5.93297 17.5065 6.4949 18.4774 6.4949Z" fill="#1A1A1A"/>
</svg>
