<svg width="50" height="50" viewBox="0 0 50 50" fill="none" xmlns="http://www.w3.org/2000/svg">
<path d="M0 0H50V50H10C4.47715 50 0 45.5228 0 40V0Z" fill="#F5F5F5"/>
<path d="M39.2627 22.3041L35.9904 22.1529C35.6914 22.1395 35.4274 21.954 35.3139 21.6782L34.6396 20.0555C34.5261 19.7785 34.5812 19.4612 34.7835 19.2403L36.9904 16.8187C37.2668 16.5147 37.2568 16.045 36.9658 15.7534L34.2452 13.0323C33.9531 12.7413 33.4833 12.7301 33.1789 13.0082L30.7584 15.2151C30.537 15.4169 30.219 15.4731 29.9426 15.3579L28.32 14.6848C28.0436 14.5708 27.8592 14.3066 27.8458 14.0072L27.6941 10.7361C27.6749 10.3242 27.3355 10 26.9243 10H23.0744C22.6631 10 22.3227 10.3242 22.3036 10.736L22.153 14.0071C22.1395 14.3066 21.9552 14.5707 21.6788 14.6847L20.0561 15.3579C19.7786 15.4731 19.4606 15.4169 19.2403 15.2151L16.8187 13.0082C16.5142 12.7301 16.0445 12.7408 15.7524 13.0323L13.0329 15.7534C12.7408 16.045 12.7307 16.5147 13.0082 16.8187L15.2151 19.2403C15.4174 19.4612 15.4714 19.7785 15.3567 20.0555L14.6847 21.6782C14.5701 21.954 14.3072 22.1395 14.0072 22.1529L10.736 22.3041C10.3248 22.3226 10 22.6626 10 23.0744V26.9237C10 27.3349 10.3248 27.6754 10.736 27.694L14.0072 27.8451C14.3072 27.8585 14.5701 28.044 14.6847 28.3199L15.3567 29.9425C15.4714 30.2195 15.4174 30.5369 15.2151 30.7577L13.0082 33.1782C12.7295 33.4839 12.7408 33.953 13.0318 34.2446L15.7545 36.9657C16.0455 37.2573 16.5141 37.2674 16.8198 36.9904L19.2403 34.7829C19.4605 34.5812 19.7797 34.5256 20.0561 34.6403L21.6787 35.3128C21.9551 35.4274 22.1394 35.6915 22.1529 35.9909L22.3035 39.2621C22.3226 39.6734 22.663 39.9981 23.0743 39.9981H26.9242C27.3355 39.9981 27.6748 39.6734 27.6939 39.2621L27.8456 35.9909C27.8591 35.6915 28.0434 35.4274 28.3198 35.3128L29.9424 34.6403C30.2188 34.5256 30.5369 34.5812 30.7582 34.7829L33.1787 36.9904C33.4832 37.2674 33.9529 37.2573 34.245 36.9657L36.9656 34.2446C37.2566 33.953 37.2667 33.4839 36.9902 33.1782L34.7833 30.7577C34.581 30.5369 34.5248 30.2195 34.6394 29.9425L35.3137 28.3199C35.4272 28.044 35.6912 27.8585 35.9902 27.8451L39.2625 27.694C39.6737 27.6754 39.9973 27.3349 39.9973 26.9237V23.0744C39.9975 22.6626 39.6739 22.3226 39.2627 22.3041ZM24.9994 29.8982C22.2946 29.8982 20.1 27.7047 20.1 24.9994C20.1 22.2934 22.2946 20.1 24.9994 20.1C27.7041 20.1 29.8976 22.2934 29.8976 24.9994C29.8976 27.7046 27.7041 29.8982 24.9994 29.8982Z" fill="#A2A6A5"/>
</svg>
