<svg width="50" height="50" viewBox="0 0 50 50" fill="none" xmlns="http://www.w3.org/2000/svg">
<rect width="50" height="50" rx="25" fill="white"/>
<rect x="1.5" y="1.5" width="47" height="47" rx="23.5" stroke="black" stroke-opacity="0.26" stroke-width="3"/>
<path d="M13 15.9495V34.0505H37V15.9495H13ZM14.4544 32.5959V17.4039H35.5454V32.5959H14.4544Z" fill="black"/>
<path d="M28.0069 21.8767L23.6724 27.5928C23.4292 27.9103 22.9354 27.903 22.7049 27.5782L20.6517 24.6862C20.4161 24.354 19.9096 24.354 19.6739 24.6862L16.4202 29.2679V31.1055H33.5797V27.9636L28.9645 21.8767C28.7263 21.5639 28.2451 21.5639 28.0069 21.8767Z" fill="black"/>
<path d="M19.822 22.5908C20.8242 22.5908 21.6367 21.7783 21.6367 20.7761C21.6367 19.7739 20.8242 18.9614 19.822 18.9614C18.8198 18.9614 18.0073 19.7739 18.0073 20.7761C18.0073 21.7783 18.8198 22.5908 19.822 22.5908Z" fill="black"/>
<mask id="mask0" mask-type="alpha" maskUnits="userSpaceOnUse" x="13" y="15" width="24" height="20">
<path d="M13 15.9495V34.0505H37V15.9495H13ZM14.4544 32.5959V17.4039H35.5454V32.5959H14.4544Z" fill="black"/>
<path d="M28.0069 21.8767L23.6724 27.5928C23.4292 27.9103 22.9354 27.903 22.7049 27.5782L20.6517 24.6862C20.4161 24.354 19.9096 24.354 19.6739 24.6862L16.4202 29.2679V31.1055H33.5797V27.9636L28.9645 21.8767C28.7263 21.5639 28.2451 21.5639 28.0069 21.8767Z" fill="black"/>
<path d="M19.822 22.5908C20.8242 22.5908 21.6367 21.7783 21.6367 20.7761C21.6367 19.7739 20.8242 18.9614 19.822 18.9614C18.8198 18.9614 18.0073 19.7739 18.0073 20.7761C18.0073 21.7783 18.8198 22.5908 19.822 22.5908Z" fill="black"/>
</mask>
<g mask="url(#mask0)">
<rect x="25" y="13" width="12" height="26" fill="#C4C4C4"/>
</g>
</svg>
