<svg width="40" height="40" viewBox="0 0 40 40" fill="none" xmlns="http://www.w3.org/2000/svg">
<path d="M29.9079 16.263C28.8162 16.6726 27.8614 16.536 26.9065 17.764C25.9511 16.536 24.9957 16.6726 23.904 16.263C23.2908 19.5377 25.9511 20.3564 25.9511 20.3564L24.9817 22.0171C24.6142 22.4692 24.0796 22.7531 23.4995 22.8036C22.9194 22.8541 22.3432 22.6667 21.904 22.2852L19.6011 20.065C18.4184 19.0378 16.9346 18.435 15.38 18.3312V15.371C15.3806 14.9859 15.5349 14.6411 15.7873 14.3889C16.0392 14.1368 16.3842 13.9822 16.7691 13.9819C17.1539 13.9822 17.4984 14.1368 17.7514 14.3889C18.0027 14.6411 18.1576 14.9859 18.1581 15.371C18.1576 15.6467 18.0785 15.9009 17.941 16.1163C17.8271 16.2952 17.8793 16.5325 18.0577 16.6467C18.2367 16.7606 18.4739 16.7081 18.5884 16.5297C18.8016 16.1951 18.9256 15.7957 18.9256 15.371C18.9256 14.1794 17.9606 13.2145 16.7691 13.2139C16.0336 13.2141 15.3856 13.5825 14.9963 14.144C14.6069 13.5825 13.9589 13.2141 13.2234 13.2139C12.0319 13.2145 11.067 14.1793 11.067 15.371C11.0664 15.7957 11.1904 16.1951 11.4041 16.5297C11.518 16.7081 11.7559 16.7606 11.9343 16.6467C12.1127 16.5325 12.1654 16.2952 12.0516 16.1168V16.1163C11.9141 15.9009 11.8345 15.6467 11.8345 15.371C11.835 14.9859 11.9893 14.6411 12.2412 14.3889C12.4942 14.1368 12.8387 13.9822 13.2235 13.9819C13.6078 13.9822 13.9528 14.1368 14.2053 14.3889C14.4572 14.6411 14.612 14.9859 14.612 15.371V18.3098H13.5377C11.9557 18.3099 10 19.6995 10 22.0366V24.8162C10 26.4585 11.0743 27.785 13.1585 27.785H19.8541H22.9963C24.4566 27.785 25.7711 26.898 26.3175 25.5438L27.8614 20.3564C27.8614 20.3564 30.5222 19.5376 29.9079 16.263Z" fill="#CCD1D0"/>
<circle cx="20" cy="20" r="18.5" stroke="#CCD1D0" stroke-width="3"/>
</svg>
