<svg width="40" height="40" viewBox="0 0 40 40" fill="none" xmlns="http://www.w3.org/2000/svg">
<rect x="1.5" y="1.5" width="37" height="37" rx="18.5" stroke="black" stroke-opacity="0.26" stroke-width="3"/>
<path d="M10 13.335V27.665H29V13.335H10ZM11.1514 26.5135V14.4864H27.8485V26.5135H11.1514Z" fill="black" fill-opacity="0.26"/>
<path d="M21.8805 18.0273L18.4491 22.5526C18.2565 22.804 17.8656 22.7982 17.6831 22.541L16.0577 20.2515C15.8711 19.9886 15.4701 19.9886 15.2836 20.2515L12.7077 23.8787V25.3335H26.2923V22.8462L22.6386 18.0273C22.45 17.7797 22.0691 17.7797 21.8805 18.0273Z" fill="black" fill-opacity="0.26"/>
<path d="M15.4007 18.5927C16.1941 18.5927 16.8373 17.9495 16.8373 17.156C16.8373 16.3626 16.1941 15.7194 15.4007 15.7194C14.6073 15.7194 13.9641 16.3626 13.9641 17.156C13.9641 17.9495 14.6073 18.5927 15.4007 18.5927Z" fill="black" fill-opacity="0.26"/>
</svg>
