<svg width="240" height="240" viewBox="0 0 240 240" fill="none" xmlns="http://www.w3.org/2000/svg">
<path d="M239.91 152.141C239.912 152.061 239.912 152.015 239.914 151.87C239.917 151.664 239.917 151.57 239.919 151.446L240 151.025L239.919 151.425C239.927 150.865 239.925 151.045 239.919 151.427L239.875 151.65C239.786 149.868 238.438 148.568 236.93 147.774C235.8 147.177 234.749 146.886 233.518 146.676C228.408 145.808 225.259 142.826 222.618 139.213C221.359 137.492 220.317 135.72 218.833 134.166C217.418 132.685 215.836 131.366 214.18 130.163C211.15 127.961 207.852 126.132 204.46 124.554C203.235 123.985 201.996 123.449 200.742 122.949C200.362 122.797 199.796 122.678 199.492 122.414C199.192 122.154 198.963 121.667 198.73 121.345C196.972 118.901 195.134 116.516 193.246 114.173C186.884 106.267 179.94 98.7993 172.45 91.9532C164.048 84.2761 155.004 77.2893 145.209 71.4792C136.088 66.0698 126.396 61.9973 116.221 59.054C104.825 55.7568 93.1978 53.2162 81.5648 50.9339C71.1731 48.8967 60.6952 47.3222 50.1614 46.2459C42.3103 45.4425 34.4592 44.6278 26.5973 43.9322C23.2055 43.6322 19.808 43.3317 16.4053 43.1709C12.4425 42.9843 8.62734 43.6814 5.33812 46.0354C3.66093 47.2364 2.22421 48.7959 1.2614 50.6264L0.563899 52.3767L0.265306 53.5443C-0.662351 57.555 1.03452 61.0181 2.4239 64.7798L3.72515 67.4925C6.75093 73.5609 10.3111 79.3776 14.3784 84.8053C19.6851 91.8825 25.9237 98.3512 33.2231 103.385C36.4027 105.58 39.8002 107.452 43.2872 109.133C46.5202 110.691 49.0955 113.376 50.34 116.74C50.7516 117.855 51.1875 118.961 51.6525 120.054C52.5328 122.117 53.5087 124.198 54.8484 126.008C57.3356 129.369 60.9656 131.816 64.7255 133.553C68.0606 135.095 71.7126 136.221 75.3881 136.515C76.5501 136.608 80.3465 136.945 80.5003 135.061C80.5608 134.315 79.9087 133.507 79.5961 132.903C78.7683 131.3 77.9522 129.691 77.152 128.072C75.9422 125.629 74.7633 123.169 73.6139 120.694C73.2239 119.853 73.9195 118.909 74.8383 119.03C83.423 120.161 90.7195 119.789 97.0476 119.167C98.7155 119.004 100.302 119.892 101.031 121.4C103.273 126.042 105.739 130.784 109.129 134.612C112.332 138.233 116.998 140.369 121.607 141.557C125.481 142.555 129.85 143.144 133.816 142.339C134.724 142.154 136.117 141.856 136.615 140.959C136.796 140.631 136.789 140.29 136.648 139.95C136.485 139.56 136.159 139.222 135.912 138.888C135.349 138.132 134.788 137.372 134.232 136.611C130.245 131.154 126.438 125.568 122.81 119.869C122.31 119.086 122.919 118.057 123.844 118.123C133.56 118.813 143.412 120.363 152.617 123.538C157.665 125.279 162.48 127.737 167.27 130.079C171.837 132.313 176.662 134.665 180.922 137.445C185.933 140.716 189.442 141.933 193.889 140.132C194.597 141.014 195.39 141.833 196.133 142.689C196.347 142.935 196.561 143.18 196.775 143.422C198.13 144.944 199.541 146.402 201.011 147.811C201.476 148.256 201.941 148.691 202.41 149.118C203.087 149.733 203.715 150.405 204.416 150.992C208.221 154.177 212.256 156.685 217.184 157.617C221.793 158.422 226.597 158.098 231.174 157.23C233.813 156.731 238.489 156.085 239.647 153.227C239.785 152.929 239.854 152.59 239.909 152.241C239.907 152.367 239.907 152.387 239.909 152.239C239.925 152.123 239.978 152.028 239.986 151.908L239.91 152.141ZM239.919 151.446C239.917 151.585 239.916 151.722 239.914 151.868C239.916 151.795 239.881 151.735 239.878 151.664L239.919 151.446ZM69.547 71.7623C71.5791 69.8826 74.6597 69.4687 77.1108 70.7611C79.8675 72.2146 81.2606 75.5151 80.3691 78.502C79.582 81.1359 77.1637 83.0489 74.4197 83.212C71.6447 83.3746 69.0051 81.7186 67.9345 79.1554C66.8766 76.6223 67.5319 73.6242 69.547 71.7623ZM12.5391 71.272C22.365 75.2573 30.3 78.0192 40.6495 80.4004C41.7061 80.6437 43.3017 81.345 44.3527 80.8364C45.2222 80.4154 45.563 79.3167 45.0867 78.4786C44.5008 77.4482 42.9375 77.4407 41.9053 77.2101C40.5966 76.919 39.2897 76.6115 37.988 76.2876C32.6283 74.9517 29.542 73.8825 24.3234 72.0792C19.4194 70.3823 14.5781 68.5097 9.80624 66.472C8.91656 64.7606 8.07656 63.0215 7.30968 61.2534C6.69796 59.8476 6.07781 58.3978 5.93671 56.8603C5.92546 56.655 5.90202 56.4539 5.91281 56.2415C15.1805 60.5287 32.9859 67.9036 52.3945 71.4581C54.5545 77.2368 57.293 83.4496 62.1089 87.5278C64.192 89.2921 66.7364 90.6192 69.427 91.1339C71.9165 91.6115 74.4905 91.7067 77.0142 91.844C80.948 92.0564 84.8836 92.2082 88.8136 92.4628C90.5564 97.1362 93.022 103.446 95.7731 109.851C96.2376 110.962 96.7101 112.079 97.1934 113.197C92.5425 113.674 87.8766 113.931 83.2125 113.79C83.0241 113.784 82.8408 113.772 82.6509 113.764C81.2081 113.711 79.7644 113.629 78.3197 113.491C71.5251 112.842 64.8403 111.275 58.3969 109.03C54.293 107.599 50.2823 105.902 46.3687 104.009C40.3809 101.158 34.9116 97.6832 29.9897 93.2226C25.4081 89.0728 21.3516 84.3557 17.7436 79.3439C16.1053 77.0704 14.6025 74.7037 13.1489 72.3093C12.9506 71.9587 12.7289 71.6273 12.5391 71.272ZM155.917 117.893C156.495 118.299 157.084 118.687 157.657 119.105C146.748 114.726 130.795 112.277 117.883 111.902C113.878 105.202 110.678 99.3192 108.293 94.7029C122.52 97.4301 135.481 104.908 147.639 112.499C150.433 114.242 153.177 116.062 155.917 117.893ZM239.834 152.375V152.282C239.852 152.139 239.912 152.024 239.914 151.872C239.912 151.976 239.912 152.059 239.91 152.141L239.834 152.375Z" fill="black" fill-opacity="0.87"/>
<path d="M73.1109 79.701C74.797 80.2064 76.62 79.222 77.1234 77.534C77.6269 75.8498 76.6402 74.0231 74.9564 73.5215C73.2759 73.0199 71.4455 74.0085 70.9439 75.689C70.4405 77.3728 71.4291 79.1981 73.1109 79.701Z" fill="black" fill-opacity="0.87"/>
<path d="M207.273 183.499C207.178 183.475 207.077 183.466 206.98 183.481C204.712 183.556 202.331 182.447 200.685 180.957C199.989 180.327 199.415 179.589 198.686 178.991C198.018 178.438 197.289 177.962 196.535 177.538C195.021 176.686 193.394 176.042 191.739 175.52C190.454 175.114 189.145 174.779 187.822 174.528C185.56 172.139 183.345 169.727 180.822 167.605C177.511 164.817 173.815 162.518 169.876 160.73C164.879 158.462 159.521 156.968 154.108 156.104C149.256 155.328 144.337 154.918 139.439 154.579C135.046 154.277 130.645 154.056 126.243 153.986C121.989 153.92 117.751 154.16 113.534 154.73C111.008 155.07 108.498 155.513 106.001 156.026C104.894 156.251 103.726 156.413 102.679 156.859C101.519 157.351 100.453 158.101 99.5433 158.969C97.7147 160.717 97.072 163.371 97.973 165.738C98.37 166.785 99.0291 167.744 99.5803 168.717C99.8948 169.271 100.212 169.824 100.537 170.371C101.802 172.499 103.27 174.49 104.857 176.384C105.102 176.677 105.349 176.969 105.6 177.247C106.033 177.732 106.41 178.261 106.869 178.72C108.397 180.245 110.074 181.62 111.89 182.791C113.953 184.12 116.162 185.107 118.472 185.92C119.759 186.374 121.053 186.804 122.36 187.194C123.041 188.497 123.76 189.788 124.571 191.016C125.166 191.919 125.81 192.817 126.614 193.548C128.057 194.862 129.894 195.703 131.76 196.221C133.439 196.689 135.217 196.935 136.962 196.839C137.581 196.807 138.216 196.737 138.806 196.539C139.122 196.431 139.552 196.262 139.69 195.926C139.754 195.77 139.734 195.613 139.665 195.463C139.579 195.28 139.427 195.124 139.305 194.963C139.024 194.593 138.744 194.222 138.465 193.848C137.812 192.974 137.184 192.078 136.549 191.189C136.192 190.66 135.803 190.169 135.465 189.611C140.629 189.807 144.729 188.873 148.734 187.499C149.697 188.805 150.698 190.091 151.795 191.289C152.602 192.17 153.466 193.032 154.492 193.658C156.364 194.804 158.595 195.303 160.77 195.419C162.556 195.516 164.477 195.408 166.174 194.789C166.619 194.628 167.19 194.407 167.464 193.992C167.788 193.499 167.303 193.149 166.97 192.833C164.537 190.521 162.209 188.1 159.934 185.634C159.673 185.337 159.397 185.061 159.14 184.761C163.659 184.29 168.23 184.461 172.751 184.792C175.997 185.032 179.464 185.628 182.682 184.837C183.055 184.744 183.421 184.627 183.782 184.49C184.021 184.398 184.258 184.286 184.503 184.217C185.036 184.069 185.565 184.067 186.083 183.832C188.219 187.215 191.442 189.892 195.48 190.518C197.869 190.889 200.38 190.686 202.702 190.02C203.293 189.852 203.875 189.648 204.437 189.401C205.036 189.138 205.673 188.967 206.284 188.735C207.265 188.362 208.371 187.966 209.175 187.272C209.912 186.636 210.231 185.621 209.674 184.752C209.168 183.957 208.151 183.636 207.273 183.499ZM108.822 176.501C111.33 175.666 113.838 174.83 116.346 173.995C116.86 173.823 117.375 173.651 117.889 173.479L117.884 173.459C118.861 173.241 118.65 171.742 117.647 171.81C115.427 171.951 113.205 172.09 110.979 171.986C108.594 171.874 106.346 171.369 104.1 170.574C103.407 169.496 102.762 168.389 102.131 167.274C101.714 166.538 101.168 165.775 100.817 164.966C100.707 164.669 100.597 164.37 100.568 164.045C101.337 164.345 102.184 164.524 102.975 164.748C104.024 165.044 105.076 165.326 106.136 165.581C108.85 166.236 111.606 166.712 114.384 166.995C116.321 167.195 118.267 167.301 120.215 167.325C121.426 170.089 123.198 172.784 125.836 174.37C127.163 175.168 128.682 175.639 130.238 175.595C131.627 175.556 133.02 175.286 134.39 175.082C136.332 174.794 138.276 174.513 140.228 174.283C141.741 176.867 143.956 180.519 146.288 183.986C146.508 184.326 146.724 184.671 146.946 185.005C142.895 186.33 138.762 187.092 133.338 186.545C130.034 186.217 126.783 185.461 123.606 184.517C119.95 183.429 116.289 182.216 113.093 180.087C111.826 179.242 110.656 178.26 109.549 177.215C109.309 176.971 109.053 176.761 108.822 176.501ZM129.093 165.762C129.521 165.211 130.114 164.83 130.76 164.639C130.795 164.631 130.83 164.625 130.865 164.616C131.507 164.449 132.197 164.464 132.84 164.709C134.22 165.236 135.093 166.682 134.917 168.149C134.754 169.523 133.7 170.669 132.349 170.956C130.989 171.246 129.567 170.614 128.861 169.417C128.187 168.278 128.282 166.807 129.093 165.762ZM134.888 168.392C134.875 168.511 134.877 168.493 134.888 168.392V168.392Z" fill="black" fill-opacity="0.87"/>
<path d="M131.483 169.344C132.39 169.452 133.222 168.747 133.266 167.835C133.305 167.011 132.68 166.278 131.862 166.181C130.958 166.065 130.127 166.779 130.083 167.684C130.043 168.507 130.664 169.245 131.483 169.344Z" fill="black" fill-opacity="0.87"/>
<path d="M131.862 166.181C132.737 166.283 131.672 166.155 131.862 166.181V166.181Z" fill="black" fill-opacity="0.87"/>
</svg>
