<svg width="30" height="30" viewBox="0 0 30 30" fill="none" xmlns="http://www.w3.org/2000/svg">
<g clip-path="url(#clip0)">
<path d="M24.7143 14.3613C24.206 13.1415 23.4945 11.9217 23.0879 11.5151C21.2582 13.2432 22.6812 14.6662 21.3598 15.2761C19.5016 16.1342 15.0576 12.9382 15.0576 12.9382C15.2609 12.5316 15.3625 11.7184 13.0246 11.0068C10.7637 10.3195 9.0603 8.66888 7.12899 7.6524C5.23817 6.65613 2.41261 5.14769 1.94485 4.60294C1.33489 3.89144 0.216749 3.89144 0.115088 4.29808C0.0864947 4.39974 0.057901 4.52994 0.0332916 4.71257C-0.0357904 5.25773 -0.0357904 6.28617 0.42001 8.56734C0.766241 10.3013 1.77001 13.5616 3.93481 16.2867C3.84827 16.1866 3.75534 16.0894 3.67278 15.9878C3.36071 17.5645 3.05808 20.7125 3.8761 23.0016C4.07942 23.8147 4.79099 23.9164 5.29923 22.8999C5.45485 22.5882 6.22835 20.4217 6.87481 19.011C7.88017 19.6701 9.02849 20.1903 10.3348 20.5055C10.7279 21.3381 11.21 22.1565 11.8048 22.8999C13.6718 25.2343 15.4642 26.1527 16.1757 25.9494C16.6347 25.8183 15.9922 23.5244 15.3426 20.712C18.0602 20.3014 20.1758 19.1198 21.7171 18.2605C22.7828 17.6708 23.5714 17.236 24.1043 17.3091C27.662 17.8174 29.695 17.6141 30 15.2761C28.7802 15.7844 26.7472 13.9547 24.7143 14.3613ZM1.05774 8.43984C0.920342 7.75171 0.81792 7.14181 0.749659 6.61247C2.85968 9.78708 4.58216 12.5268 8.55206 14.8696C8.62513 14.9124 8.69655 14.9513 8.76962 14.9934C8.92132 16.1405 9.2628 17.9285 9.99815 19.7387C3.1138 17.7142 1.2555 9.42738 1.05774 8.43984ZM15.1973 20.0743C15.0115 19.2429 14.832 18.3789 14.6843 17.5204C16.626 18.0656 18.439 18.309 20.109 18.3947C18.759 19.0956 17.1358 19.7904 15.1973 20.0743Z" fill="black" fill-opacity="0.87"/>
</g>
<defs>
<clipPath id="clip0">
<rect width="30" height="30" fill="white"/>
</clipPath>
</defs>
</svg>
