<svg width="90" height="58" viewBox="0 0 90 58" fill="none" xmlns="http://www.w3.org/2000/svg">
<path d="M89.9662 40.8746C89.9669 40.8446 89.9669 40.8273 89.9677 40.7729C89.9688 40.6957 89.9688 40.6604 89.9696 40.6139L89.9999 40.4561L89.9696 40.6061C89.9726 40.3961 89.9718 40.4636 89.9696 40.6068L89.953 40.6904C89.9197 40.0222 89.4142 39.5347 88.8487 39.2369C88.4249 39.0131 88.0308 38.9039 87.5692 38.8252C85.6529 38.4997 84.472 37.3814 83.4817 36.0266C83.0095 35.3812 82.6188 34.7167 82.0623 34.1339C81.5317 33.5786 80.9384 33.0839 80.3174 32.6328C79.1812 31.8071 77.9444 31.1212 76.6724 30.5294C76.2131 30.3161 75.7484 30.1151 75.2782 29.9276C75.1357 29.8706 74.9234 29.8259 74.8094 29.7269C74.6969 29.6294 74.611 29.4468 74.5237 29.3261C73.8644 28.4096 73.1752 27.5152 72.4672 26.6366C70.0814 23.6718 67.4774 20.8714 64.6687 18.3041C61.5179 15.4252 58.1264 12.8052 54.4533 10.6264C51.0329 8.59785 47.3984 7.07066 43.5828 5.96693C39.3093 4.73048 34.9491 3.77775 30.5867 2.92189C26.6898 2.15794 22.7606 1.5675 18.8105 1.16389C15.8663 0.862613 12.9221 0.557101 9.97392 0.296251C8.70199 0.183751 7.42793 0.0710622 6.15192 0.0107622C4.66587 -0.0592128 3.23518 0.2022 2.00172 1.08495C1.37278 1.53533 0.834007 2.12014 0.472954 2.80658L0.211391 3.46294L0.0994184 3.90079C-0.248453 5.4048 0.387874 6.70346 0.908891 8.1141L1.39686 9.13136C2.53153 11.407 3.86659 13.5883 5.39183 15.6237C7.38184 18.2776 9.72131 20.7034 12.4586 22.5911C13.6509 23.4142 14.925 24.1162 16.2326 24.7466C17.445 25.3308 18.4107 26.3377 18.8774 27.5992C19.0318 28.0173 19.1952 28.4321 19.3696 28.8419C19.6997 29.6156 20.0657 30.3959 20.5681 31.0747C21.5008 32.3351 22.862 33.2527 24.272 33.9041C25.5227 34.4823 26.8922 34.9046 28.2705 35.0148C28.7062 35.0497 30.1299 35.1761 30.1875 34.4696C30.2102 34.1898 29.9657 33.8868 29.8485 33.6603C29.538 33.0592 29.232 32.4558 28.9319 31.8487C28.4783 30.9326 28.0362 30.0101 27.6051 29.0819C27.4589 28.7666 27.7197 28.4126 28.0643 28.4579C31.2836 28.8821 34.0197 28.7426 36.3928 28.5093C37.0182 28.4482 37.6132 28.7812 37.8865 29.3467C38.7273 31.0874 39.652 32.8657 40.9233 34.3012C42.1244 35.6591 43.8742 36.4601 45.6026 36.9056C47.0553 37.2798 48.6937 37.5007 50.1809 37.1988C50.5214 37.1294 51.0438 37.0177 51.2306 36.6813C51.2984 36.5583 51.2958 36.4304 51.2429 36.3029C51.1818 36.1567 51.0596 36.0299 50.9669 35.9047C50.7558 35.6212 50.5454 35.3362 50.3369 35.0508C48.8418 33.0044 47.4142 30.9097 46.0537 28.7726C45.8662 28.4789 46.0946 28.0931 46.4414 28.1178C50.0849 28.3766 53.7794 28.9578 57.2313 30.1484C59.1243 30.8013 60.9299 31.7231 62.7262 32.6013C64.4388 33.4391 66.2482 34.3211 67.8457 35.3636C69.7248 36.5902 71.0407 37.0466 72.7083 36.3712C72.9738 36.7019 73.2712 37.0091 73.5498 37.3301C73.63 37.4223 73.7103 37.5142 73.7905 37.6049C74.2987 38.1757 74.8278 38.7224 75.3791 39.2508C75.5534 39.4177 75.7278 39.5808 75.9037 39.7409C76.1576 39.9716 76.3931 40.2236 76.6559 40.4437C78.0828 41.6381 79.5959 42.5786 81.4439 42.9281C83.1723 43.2299 84.9738 43.1084 86.6902 42.7829C87.6798 42.5958 89.4333 42.3536 89.8676 41.2818C89.9193 41.1701 89.9452 41.0429 89.9658 40.9121C89.965 40.9593 89.965 40.9668 89.9658 40.9113C89.9718 40.8678 89.9917 40.8322 89.9947 40.7872L89.9662 40.8746ZM89.9696 40.6139C89.9688 40.6661 89.9684 40.7174 89.9677 40.7722C89.9684 40.7448 89.9553 40.7223 89.9542 40.6957L89.9696 40.6139ZM26.0801 10.7325C26.8421 10.0277 27.9973 9.87244 28.9165 10.3571C29.9502 10.9022 30.4727 12.1398 30.1383 13.2599C29.8432 14.2476 28.9363 14.965 27.9073 15.0262C26.8667 15.0872 25.8768 14.4662 25.4754 13.505C25.0787 12.555 25.3244 11.4308 26.0801 10.7325ZM4.70209 10.5487C8.3868 12.0432 11.3624 13.0789 15.2435 13.9718C15.6397 14.0631 16.2381 14.3261 16.6322 14.1353C16.9583 13.9775 17.0861 13.5654 16.9074 13.2512C16.6877 12.8648 16.1015 12.8619 15.7144 12.7755C15.2237 12.6663 14.7336 12.551 14.2454 12.4295C12.2355 11.9286 11.0782 11.5276 9.1212 10.8514C7.2822 10.215 5.46672 9.51281 3.67727 8.74868C3.34364 8.1069 3.02864 7.45474 2.74106 6.7917C2.51166 6.26453 2.27911 5.72085 2.22619 5.14429C2.22198 5.0673 2.21319 4.99189 2.21723 4.91224C5.69262 6.51994 12.3696 9.28553 19.6479 10.6185C20.4579 12.7855 21.4848 15.1153 23.2908 16.6446C24.0719 17.3062 25.0261 17.8039 26.0351 17.9969C26.9686 18.176 27.9339 18.2117 28.8803 18.2632C30.3554 18.3428 31.8313 18.3998 33.305 18.4952C33.9586 20.2478 34.8832 22.6139 35.9148 25.0158C36.089 25.4324 36.2662 25.8513 36.4474 26.2706C34.7034 26.4494 32.9537 26.5458 31.2046 26.4929C31.134 26.4907 31.0652 26.4862 30.994 26.4832C30.453 26.4633 29.9116 26.4326 29.3698 26.3808C26.8218 26.1374 24.315 25.5498 21.8988 24.7079C20.3598 24.1713 18.8558 23.5349 17.3882 22.8251C15.1428 21.7559 13.0918 20.4529 11.2461 18.7802C9.52797 17.224 8.00678 15.4551 6.65378 13.5756C6.03942 12.7231 5.47587 11.8356 4.93077 10.9377C4.8564 10.8062 4.77327 10.6819 4.70209 10.5487ZM58.4688 28.0316C58.6856 28.1838 58.9064 28.3293 59.1213 28.4861C55.0304 26.8439 49.0481 25.9256 44.2061 25.7849C42.7042 23.2724 41.5042 21.0664 40.6098 19.3353C45.9449 20.358 50.8053 23.1622 55.3646 26.0088C56.4123 26.6624 57.4413 27.3449 58.4688 28.0316ZM89.9377 40.9623V40.9274C89.9444 40.8738 89.9669 40.8307 89.9677 40.7737C89.9669 40.8127 89.9669 40.8438 89.9662 40.8746L89.9377 40.9623Z" fill="black" fill-opacity="0.87"/>
<path d="M27.4166 13.7096C28.0489 13.8991 28.7325 13.5299 28.9213 12.8969C29.1101 12.2654 28.7401 11.5804 28.1087 11.3923C27.4785 11.2042 26.7921 11.5749 26.604 12.2051C26.4152 12.8365 26.786 13.521 27.4166 13.7096Z" fill="black" fill-opacity="0.87"/>
<path d="M77.7273 52.6338C77.6917 52.6248 77.6538 52.6214 77.6174 52.6271C76.7669 52.6552 75.8741 52.2393 75.2568 51.6806C74.9958 51.4443 74.7806 51.1676 74.5072 50.9433C74.2567 50.7359 73.9833 50.5574 73.7006 50.3984C73.1328 50.0789 72.5227 49.8374 71.9021 49.6417C71.4202 49.4894 70.9293 49.3638 70.4332 49.2697C69.5849 48.3738 68.7543 47.4693 67.8082 46.6736C66.5666 45.6281 65.1806 44.7659 63.7034 44.0954C61.8296 43.2449 59.8203 42.6847 57.7904 42.3607C55.9709 42.0697 54.1263 41.9159 52.2895 41.7888C50.6422 41.6756 48.9918 41.5927 47.341 41.5664C45.7458 41.5417 44.1565 41.6317 42.5752 41.8454C41.6279 41.9729 40.6867 42.1391 39.7503 42.3314C39.3352 42.4158 38.8972 42.4766 38.5045 42.6438C38.0695 42.8283 37.6698 43.1096 37.3287 43.4351C36.6429 44.0906 36.4019 45.0858 36.7398 45.9734C36.8887 46.3661 37.1358 46.7257 37.3425 47.0906C37.4605 47.2983 37.5794 47.5057 37.7013 47.7108C38.1757 48.5088 38.7262 49.2554 39.3213 49.9657C39.4132 50.0756 39.5058 50.1851 39.5999 50.2893C39.7623 50.4712 39.9037 50.6696 40.0758 50.8417C40.6488 51.4136 41.2777 51.9292 41.9587 52.3683C42.7323 52.8667 43.5607 53.2368 44.4269 53.5417C44.9096 53.7119 45.3948 53.8732 45.8849 54.0194C46.1403 54.5081 46.4099 54.9922 46.714 55.4527C46.9372 55.7913 47.1787 56.1281 47.4802 56.4022C48.0213 56.8949 48.7102 57.2103 49.4099 57.4046C50.0395 57.5801 50.7063 57.6723 51.3607 57.6363C51.5928 57.6243 51.8309 57.5981 52.0522 57.5238C52.1707 57.4833 52.3319 57.4199 52.3837 57.2939C52.4077 57.2354 52.4002 57.1766 52.3743 57.1203C52.342 57.0517 52.285 56.9932 52.2393 56.9328C52.1339 56.7941 52.0289 56.6549 51.9243 56.5147C51.6794 56.1869 51.4439 55.8509 51.2058 55.5176C51.0719 55.3192 50.926 55.1351 50.7993 54.9258C52.7358 54.9993 54.2733 54.6491 55.7752 54.1338C56.1363 54.6236 56.5117 55.1058 56.9231 55.5551C57.2257 55.8854 57.5497 56.2087 57.9344 56.4434C58.6364 56.8732 59.4731 57.0603 60.2887 57.1038C60.9584 57.1402 61.6788 57.0997 62.3152 56.8676C62.482 56.8072 62.6962 56.7243 62.7989 56.5687C62.9204 56.3838 62.7386 56.2526 62.6137 56.1341C61.7013 55.2671 60.8283 54.3592 59.9752 53.4344C59.8773 53.3231 59.7738 53.2196 59.6774 53.1071C61.3721 52.9304 63.0862 52.9946 64.7816 53.1187C65.9988 53.2087 67.2989 53.4322 68.5057 53.1356C68.6456 53.1007 68.7828 53.0568 68.9182 53.0054C69.0078 52.9709 69.0967 52.9289 69.1886 52.9031C69.3884 52.8476 69.5868 52.8468 69.781 52.7587C70.582 54.0273 71.7907 55.0312 73.3049 55.2659C74.2008 55.4051 75.1424 55.3289 76.0132 55.0792C76.2348 55.0162 76.4531 54.9397 76.6638 54.8471C76.8884 54.7484 77.1273 54.6843 77.3564 54.5973C77.7243 54.4574 78.1391 54.3089 78.4406 54.0487C78.7169 53.8102 78.8366 53.4296 78.6277 53.1037C78.4379 52.8056 78.0566 52.6852 77.7273 52.6338ZM40.8082 50.0096C41.7487 49.6964 42.6892 49.3829 43.6297 49.0698C43.8224 49.0053 44.0155 48.9408 44.2083 48.8763L44.2064 48.8688C44.5728 48.7871 44.4937 48.2249 44.1176 48.2504C43.2851 48.3033 42.4518 48.3554 41.617 48.3164C40.7227 48.2744 39.8797 48.0851 39.0374 47.7869C38.7775 47.3827 38.5357 46.9676 38.299 46.5494C38.1427 46.2734 37.9379 45.9873 37.8063 45.6839C37.7651 45.5726 37.7238 45.4604 37.7129 45.3386C38.0013 45.4511 38.3189 45.5182 38.6155 45.6022C39.0089 45.7132 39.4034 45.8189 39.8009 45.9146C40.8187 46.1602 41.8522 46.3387 42.8939 46.4448C43.6203 46.5198 44.35 46.5596 45.0805 46.5686C45.5347 47.6051 46.1992 48.6157 47.1884 49.2104C47.686 49.5097 48.2557 49.6863 48.8392 49.6698C49.3601 49.6552 49.8824 49.5539 50.3962 49.4774C51.1244 49.3694 51.8534 49.2641 52.5854 49.1778C53.1528 50.1468 53.9834 51.5163 54.8579 52.8164C54.9404 52.9439 55.0214 53.0733 55.1047 53.1986C53.5856 53.6954 52.0357 53.9812 50.0017 53.7761C48.7627 53.6531 47.5436 53.3696 46.3522 53.0156C44.9812 52.6076 43.6083 52.1527 42.4098 51.3543C41.9347 51.0374 41.4959 50.6692 41.0808 50.2773C40.9908 50.1858 40.8948 50.1071 40.8082 50.0096ZM48.4098 45.9824C48.5703 45.7758 48.7927 45.6329 49.0349 45.5613C49.048 45.5583 49.0612 45.5561 49.0743 45.5527C49.3151 45.4901 49.5738 45.4957 49.8149 45.5876C50.3324 45.7852 50.6598 46.3274 50.5938 46.8776C50.5327 47.3928 50.1374 47.8226 49.6308 47.9302C49.1208 48.0389 48.5875 47.8019 48.3228 47.3531C48.07 46.9259 48.1057 46.3743 48.4098 45.9824ZM50.5829 46.9687C50.5781 47.0133 50.5788 47.0066 50.5829 46.9687V46.9687Z" fill="black" fill-opacity="0.87"/>
<path d="M49.306 47.3257C49.6461 47.3662 49.9581 47.1018 49.9746 46.7598C49.9892 46.4508 49.7548 46.1759 49.4481 46.1396C49.1091 46.0961 48.7975 46.3638 48.781 46.7032C48.766 47.0118 48.9988 47.2886 49.306 47.3257Z" fill="black" fill-opacity="0.87"/>
<path d="M49.4482 46.1396C49.7763 46.1778 49.3769 46.1298 49.4482 46.1396V46.1396Z" fill="black" fill-opacity="0.87"/>
</svg>
