<svg width="14" height="10" viewBox="0 0 14 10" fill="none" xmlns="http://www.w3.org/2000/svg">
<path d="M13.6626 2.09262C12.9133 2.37367 12.258 2.27993 11.6028 3.12272C10.9471 2.27993 10.2914 2.37367 9.54214 2.09262C9.12134 4.33994 10.9471 4.90187 10.9471 4.90187L10.2818 6.04154C10.0296 6.35184 9.66265 6.54666 9.26455 6.58129C8.86644 6.61595 8.47102 6.48736 8.16957 6.22555L6.58909 4.70185C5.77748 3.99688 4.75912 3.5832 3.69226 3.51195V1.48043C3.69263 1.2161 3.79853 0.979516 3.97176 0.806443C4.14465 0.633369 4.38142 0.527316 4.64556 0.527102C4.90967 0.527289 5.14606 0.633369 5.3197 0.806443C5.49218 0.979516 5.59845 1.2161 5.59883 1.48043C5.59845 1.66964 5.54417 1.84405 5.44983 1.9919C5.37165 2.11471 5.40747 2.27757 5.5299 2.35593C5.65274 2.4341 5.81557 2.39807 5.89415 2.27564C6.04046 2.046 6.12553 1.77186 6.12553 1.4804C6.12553 0.662617 5.46328 0.000402122 4.64553 0C4.14076 0.000187657 3.69609 0.252962 3.42887 0.638356C3.16167 0.252962 2.71698 0.000187657 2.21221 0C1.39445 0.000402122 0.732238 0.66259 0.732238 1.4804C0.731862 1.77186 0.816951 2.04597 0.963645 2.27564C1.04179 2.39807 1.20505 2.43407 1.32749 2.35593C1.44992 2.27757 1.48608 2.11471 1.40796 1.99227V1.9919C1.31363 1.84405 1.25896 1.66964 1.25896 1.48043C1.25934 1.2161 1.36523 0.979516 1.53809 0.806443C1.71175 0.633369 1.94815 0.527316 2.21223 0.527102C2.47597 0.527289 2.71277 0.633369 2.88603 0.806443C3.05892 0.979516 3.16516 1.2161 3.16516 1.48043V3.49731H2.42791C1.34215 3.49734 0 4.45101 0 6.05497V7.96253C0 9.08965 0.737304 10 2.16763 10H6.76276H8.91923C9.92142 10 10.8235 9.39129 11.1985 8.46188L12.2581 4.90184C12.258 4.90187 14.0842 4.33992 13.6626 2.09262Z" fill="#4B8E8D"/>
</svg>
