<svg width="40" height="36" viewBox="0 0 40 36" fill="none" xmlns="http://www.w3.org/2000/svg">
<path d="M22.796 28.1004L21.8536 27.3044C21.1627 28.1272 20.8222 29.094 20.6549 29.9704L21.8658 30.2C22.0062 29.4626 22.2882 28.7009 22.796 28.1004Z" fill="#4B8E8D"/>
<path d="M26.0662 26.2327L25.3399 25.2366C25.0054 25.4807 24.599 25.6882 24.0997 25.8445C23.698 25.969 23.3355 26.1301 23.0108 26.323L23.6419 27.3826C23.8799 27.2409 24.1521 27.1176 24.4634 27.0212C25.0836 26.8309 25.617 26.5598 26.0662 26.2327Z" fill="#4B8E8D"/>
<path d="M26.8157 22.2997C26.784 23.026 26.5789 23.8012 26.1211 24.4457L27.1282 25.1561C27.7508 24.2722 28.0071 23.2664 28.0474 22.3509L26.8157 22.2997Z" fill="#4B8E8D"/>
<path d="M13.078 30.754C12.8973 29.8018 12.5141 28.9791 12.027 28.2833L11.0175 28.9901V28.9914C11.4179 29.5627 11.7206 30.217 11.8671 30.9835L13.078 30.754Z" fill="#4B8E8D"/>
<path d="M9.0742 25.7186L8.47241 26.7941C9.08155 27.1359 9.73341 27.5827 10.2998 28.1441L11.1677 27.2677C10.4975 26.6061 9.75662 26.1007 9.0742 25.7186Z" fill="#4B8E8D"/>
<path d="M39.9846 34.9094L39.3047 33.4153L32.2307 17.8319H22.3663C22.2333 18.0663 22.1124 18.2885 21.972 18.5277C21.5924 19.1771 21.2409 19.7655 20.9149 20.2977H26.3726L26.3628 20.3074C26.4544 20.3953 26.6241 20.7152 26.7156 21.1351L27.9168 20.8616C27.8692 20.6614 27.8106 20.4759 27.7447 20.2977H30.6426L36.2688 32.6914H20.7624L21.7938 32.5314L21.7926 32.5217C21.7841 32.4557 21.7377 32.1042 21.7377 31.6061C21.7377 31.5426 21.7389 31.4779 21.7401 31.4108L20.5084 31.3828C20.5059 31.4597 20.5059 31.5329 20.5059 31.6061C20.5059 32.1762 20.5572 32.5827 20.5719 32.6914H13.1574C13.177 32.49 13.1904 32.2922 13.1928 32.0993L11.9599 32.0822C11.9575 32.2775 11.9417 32.4826 11.9185 32.6914H3.73128L6.75617 26.0276C6.93687 26.0886 7.16757 26.1741 7.43491 26.2864L7.91709 25.1536C7.67053 25.0486 7.45319 24.9657 7.26765 24.8997L9.35747 20.2977H12.3921C12.0674 19.7655 11.7159 19.1771 11.335 18.5278C11.1946 18.2885 11.0738 18.0664 10.9407 17.832H7.76811L0.015458 34.9094C-0.0089949 34.9643 -0.00407307 35.0266 0.0276453 35.0778C0.0606138 35.1266 0.115535 35.1559 0.175378 35.1559H39.8247C39.8845 35.1559 39.9394 35.1266 39.9724 35.0778C40.0041 35.0266 40.0089 34.9643 39.9846 34.9094Z" fill="#4B8E8D"/>
<path d="M16.6535 24.1916C17.0441 24.1916 24.8687 12.7538 24.8687 8.21523C24.8687 3.67918 21.1908 0 16.6535 0C12.1149 0 8.43701 3.67918 8.43701 8.21523C8.43701 12.7538 16.2629 24.1916 16.6535 24.1916ZM13.5114 8.21523C13.5114 6.47939 14.9189 5.07315 16.6535 5.07315C18.3893 5.07315 19.7967 6.47939 19.7967 8.21523C19.7967 9.95107 18.3893 11.3585 16.6535 11.3585C14.9189 11.3586 13.5114 9.95107 13.5114 8.21523Z" fill="#4B8E8D"/>
</svg>
