<svg width="60" height="60" viewBox="0 0 60 60" fill="none" xmlns="http://www.w3.org/2000/svg">
<circle cx="30" cy="30" r="28" fill="white" stroke="#4B8E8D" stroke-width="4"/>
<path d="M27.712 30.408C27.712 32.184 27.416 33.736 26.824 35.064C26.248 36.376 25.36 37.4 24.16 38.136C22.96 38.872 21.424 39.24 19.552 39.24C17.696 39.24 16.16 38.872 14.944 38.136C13.744 37.4 12.848 36.368 12.256 35.04C11.68 33.712 11.392 32.16 11.392 30.384C11.392 28.608 11.68 27.064 12.256 25.752C12.848 24.44 13.744 23.424 14.944 22.704C16.16 21.968 17.704 21.6 19.576 21.6C21.432 21.6 22.96 21.968 24.16 22.704C25.36 23.424 26.248 24.448 26.824 25.776C27.416 27.088 27.712 28.632 27.712 30.408ZM15.208 30.408C15.208 32.2 15.552 33.616 16.24 34.656C16.928 35.68 18.032 36.192 19.552 36.192C21.104 36.192 22.216 35.68 22.888 34.656C23.56 33.616 23.896 32.2 23.896 30.408C23.896 28.6 23.56 27.184 22.888 26.16C22.216 25.136 21.112 24.624 19.576 24.624C18.04 24.624 16.928 25.136 16.24 26.16C15.552 27.184 15.208 28.6 15.208 30.408ZM45.0376 39H40.9096L36.4216 31.776L34.8856 32.88V39H31.2616V21.864H34.8856V29.712C35.1256 29.376 35.3656 29.04 35.6056 28.704C35.8456 28.368 36.0856 28.032 36.3256 27.696L40.9576 21.864H44.9896L39.0136 29.448L45.0376 39Z" fill="#4B8E8D"/>
</svg>
