<svg width="60" height="60" viewBox="0 0 60 60" fill="none" xmlns="http://www.w3.org/2000/svg">
<path d="M15.4658 30.2331C15.4663 30.2322 15.4675 30.2314 15.4677 30.2306L15.4758 30.217L15.4658 30.2331Z" fill="#4B8E8D"/>
<path d="M17.4977 28.7964L17.4924 28.7973C17.4934 28.7973 17.4942 28.7973 17.4942 28.7973C17.4956 28.7964 17.4964 28.7964 17.4977 28.7964Z" fill="#4B8E8D"/>
<path d="M51.7068 31.0061L47.3068 30.6403L39.5789 20.855C38.9716 19.8729 37.9475 18.9018 36.6075 18.0419C36.4809 17.9619 36.3528 17.8829 36.223 17.8071L37.1453 16.531C37.4503 16.1086 37.6803 15.7812 37.8261 15.572C40.0092 12.3826 38.6266 10.4509 37.0822 9.39284C36.2637 8.83385 35.454 8.55048 34.6759 8.55048C33.3551 8.55048 32.1361 9.35292 31.0524 10.9357C30.7758 11.3429 29.5089 13.3544 28.3909 15.1296L27.6843 16.2507L22.2805 16.2523C21.0491 16.3025 20.0207 16.515 19.1359 16.9007C18.2272 17.2951 17.4262 17.9068 16.7813 18.691L12.1212 23.1165C11.2576 23.9142 10.6438 24.8861 10.2974 26.0056C10.0274 26.876 9.94521 27.7128 9.87931 28.3844L9.8617 28.5608L8.67102 37.3034C8.54367 37.8527 8.47865 38.3733 8.47865 38.8509C8.47464 40.3266 9.07948 41.2433 9.43973 41.6586C9.72799 41.9932 10.0175 42.2096 10.2167 42.3359C9.77872 42.7223 9.51592 43.2645 9.48445 43.8562L8.57967 48.1029L8.32096 48.4814C8.04186 48.5964 7.80834 48.7848 7.64142 49.0308C7.46448 49.2895 7.37069 49.5914 7.37103 49.9011C7.3706 50.4122 7.62172 50.8898 8.04456 51.1796L8.15439 51.2539C8.18551 51.2762 8.21863 51.2906 8.25341 51.3001C8.45982 51.3985 8.6854 51.4496 8.917 51.4496C9.42762 51.4496 9.90476 51.1979 10.1947 50.7763C10.3644 50.5272 10.4574 50.2389 10.4638 49.9395L10.6791 49.6248C10.6791 49.6248 15.0963 47.793 15.1005 47.7914C15.7214 47.5415 16.1978 47.0072 16.385 46.3525C16.4438 46.2374 16.6577 45.819 16.9081 45.3016C17.1385 44.8264 17.3329 44.4064 17.4886 44.0462C17.5261 44.0606 17.5664 44.0686 17.6072 44.0686C17.6268 44.0686 17.6467 44.067 17.6663 44.0638C17.7498 44.0479 17.8232 43.9999 17.8712 43.9297L18.2884 43.3196C18.3503 43.2285 18.3615 43.1128 18.3176 43.0114C18.316 43.0082 18.1623 42.6305 18.4034 42.2783L18.4278 42.2433C18.7692 42.4109 19.134 42.522 19.5183 42.5763C19.6664 42.835 19.8484 43.0786 20.0601 43.3005C20.4984 43.7637 21.4942 44.5407 23.2614 44.5407C24.0587 44.5407 24.9634 44.3762 25.9533 44.0529C26.5701 44.5208 27.2233 44.9088 27.9445 45.2387C29.6122 46.0013 31.4752 46.3797 33.2403 46.6751C34.5432 46.8915 36.171 47.001 38.0795 47.001C40.9841 47.001 43.6241 46.7503 44.207 46.6912L51.6478 47.4499C51.659 47.4514 51.6702 47.4514 51.6806 47.4514C51.7597 47.4514 51.8354 47.4227 51.8946 47.3692C51.9616 47.3085 52 47.2231 52 47.1321V31.3247C51.9998 31.1577 51.8728 31.0205 51.7068 31.0061ZM9.86284 38.8509C9.86284 38.4852 9.91008 38.062 10.0274 37.5717L10.0338 37.546L11.2363 28.7238L11.2375 28.7158C11.3094 27.9876 11.3756 27.1978 11.6197 26.4168C11.8644 25.635 12.2741 24.862 13.0655 24.129L13.0726 24.1226L17.7716 19.6588L17.792 19.6333C18.3482 18.9546 18.9571 18.489 19.6889 18.1688C20.4189 17.851 21.2816 17.68 22.3301 17.6353H27.1873C25.8429 19.7658 24.214 22.3642 22.6017 24.9403L19.0262 27.6801L18.7783 28.1895C18.7044 28.1568 18.6273 28.1217 18.5455 28.0825C18.1394 27.8925 17.6499 27.6537 17.2631 27.4637C16.8757 27.2736 16.5923 27.1314 16.5916 27.1314L16.1151 28.0832C16.1164 28.0832 16.6259 28.3388 17.2112 28.6238C17.3221 28.6774 17.4367 28.7332 17.5505 28.7875C17.5318 28.7923 17.5129 28.7923 17.4946 28.7971C16.639 28.9712 15.9131 29.4999 15.4678 30.2305L14.9208 31.1418H14.9204C14.6246 31.6361 14.4789 32.1879 14.4793 32.7357C14.479 33.5167 14.7748 34.292 15.3437 34.8878L15.355 34.8981L15.5018 35.0499L14.8399 37.2562C14.5048 37.7457 13.8848 38.6513 13.6365 39.0154C13.2875 39.5249 12.7071 39.5001 12.7071 39.5001L12.2894 40.111L12.699 40.3904C12.3947 40.6699 12.0402 41.0102 11.7068 41.3342C11.6146 41.3574 11.5335 41.3726 11.472 41.3726C11.3678 41.3702 11.2843 41.355 11.1259 41.2584L11.0899 41.2352L11.0595 41.2225L11.0097 41.1953C10.8935 41.1298 10.6044 40.9398 10.3504 40.5765C10.0969 40.2116 9.86484 39.6782 9.86284 38.8509ZM20.9877 27.5181C20.6112 28.1201 20.2419 28.711 19.8833 29.2828L19.8646 29.2731L19.8638 29.2748C19.7571 29.2029 19.6453 29.1374 19.5296 29.0783L19.8737 28.3725L20.9877 27.5181ZM10.7604 42.2703C10.754 42.2767 10.7512 42.2799 10.7449 42.2863C10.744 42.2751 10.7373 42.2672 10.7356 42.2568C10.7441 42.2607 10.7521 42.2663 10.7604 42.2703ZM15.9018 44.8136C15.7581 45.1107 15.6255 45.3766 15.5289 45.5683C15.4323 45.76 15.3727 45.875 15.3727 45.875L15.3481 45.9229L15.3369 45.9764C15.2606 46.3366 15.0075 46.6321 14.6637 46.763L14.6581 46.7654L9.94346 48.7194L9.30384 49.6552L9.3374 49.8214L9.34577 49.9052C9.34577 49.9882 9.32258 50.0689 9.27116 50.1456C9.18817 50.2662 9.05481 50.3309 8.917 50.3309C8.83237 50.3309 8.75008 50.3077 8.67582 50.2566C8.55405 50.1727 8.49015 50.0402 8.48937 49.902C8.48937 49.8197 8.5129 49.7383 8.56276 49.664L8.56442 49.6616C8.6338 49.561 8.73204 49.5019 8.84352 49.482L9.01036 49.4533L9.62723 48.5516L10.5926 44.0216L10.5922 43.9784V43.9713C10.5922 43.6055 10.7762 43.2653 11.0821 43.0665L11.118 43.0425L11.1484 43.0122C11.1491 43.0114 11.4024 42.7566 11.7552 42.4069C11.9181 42.3805 13.2836 41.0932 13.379 41.0095L14.7653 42.0531H14.7645L15.0467 42.2464L16.5887 43.3021C16.4017 43.7603 16.1382 44.3272 15.9018 44.8136ZM18.9302 40.943C19.2661 40.4527 19.5675 40.012 19.5675 40.012L15.8819 37.4894L16.1794 36.4959L20.1669 39.219C20.2179 39.1432 20.2954 39.033 20.3961 38.8924L20.8281 39.2262L22.4108 40.4528C21.4247 41.0374 20.6512 41.233 20.0664 41.2322C19.5963 41.2306 19.2277 41.1108 18.9302 40.943ZM23.2611 43.1567C22.0766 43.1503 21.4476 42.7382 21.0607 42.3429C21.0132 42.2943 20.9817 42.2463 20.9422 42.1984C21.6446 42.0499 22.4306 41.7169 23.3079 41.1467L24.13 41.7831C24.4395 42.1825 24.7593 42.5434 25.0902 42.8739C24.3692 43.0751 23.7638 43.1567 23.2611 43.1567ZM50.616 45.9531L44.2037 45.2991L44.1479 45.3055C44.1471 45.3055 43.9706 45.3238 43.6504 45.3526C42.6898 45.4404 40.4594 45.6161 38.0794 45.6161C36.4938 45.6169 34.8397 45.5378 33.467 45.3094H33.4674C31.5058 44.982 29.8932 44.6083 28.5205 43.979C27.1478 43.3482 26.0019 42.4714 24.9263 41.0748L24.884 41.0198L21.62 38.4932L16.9629 34.895L16.4561 34.5045L16.1108 34.1491L16.1139 34.1523C15.7374 33.7578 15.5441 33.25 15.5441 32.7357C15.5441 32.3755 15.6388 32.0155 15.8344 31.6896L16.3861 30.7689L16.3753 30.7873C16.6748 30.297 17.1504 29.9536 17.709 29.8402L17.7137 29.8386C17.851 29.8099 17.9864 29.7955 18.1202 29.7955C18.3006 29.7955 18.4775 29.8211 18.6524 29.8714L18.668 29.8754L18.6692 29.8761C18.8912 29.9328 19.104 30.0351 19.3096 30.1788L19.3367 30.1979L19.9204 30.5078L25.3785 33.3936L26.4932 33.9837L29.5264 33.8216L29.4698 32.758L26.7308 32.9049L25.8763 32.4522L25.3657 32.1823C28.3207 28.2159 32.5255 22.385 35.1279 18.7772C35.3766 18.9129 35.623 19.0551 35.8606 19.2068L35.8625 19.2084C36.9749 19.9143 37.9336 20.7927 38.4234 21.6152L38.4417 21.6455L46.5921 31.9691L50.6159 32.3045V45.9531H50.616Z" fill="#4B8E8D"/>
<path d="M11.1888 44.947C10.974 45.26 11.0543 45.6881 11.3681 45.9036C11.6819 46.1177 12.1103 46.0379 12.3255 45.724C12.5399 45.4101 12.46 44.9821 12.1462 44.7666C11.832 44.5508 11.4032 44.6323 11.1888 44.947Z" fill="#4B8E8D"/>
</svg>
