<svg width="20" height="20" viewBox="0 0 20 20" fill="none" xmlns="http://www.w3.org/2000/svg">
<path d="M7.88191 15.5964C7.88191 15.5964 7.90129 15.577 7.92499 15.5533L12.4892 10.9891C12.513 10.9654 12.5342 10.9441 12.5366 10.9417C12.5389 10.9394 12.5602 10.9181 12.5839 10.8944L15.0022 8.47609C15.0026 8.47567 15.0026 8.47497 15.0022 8.47452L12.3029 5.7753C12.3025 5.77487 12.3018 5.77487 12.3014 5.7753L9.88305 8.19362C9.85935 8.21732 9.83805 8.23862 9.83573 8.24094C9.83341 8.24326 9.8121 8.26457 9.78841 8.28826L5.18128 12.8954C5.18113 12.8956 5.18104 12.8957 5.18099 12.8959L4.00005 16.7761C3.99979 16.7769 4.00059 16.7777 4.00143 16.7775L7.8236 15.6142C7.85566 15.6044 7.88191 15.5964 7.88191 15.5964ZM4.86096 15.9152L5.45062 13.9777C5.45085 13.9769 5.45186 13.9766 5.45245 13.9772L6.80027 15.325C6.80085 15.3256 6.8006 15.3266 6.7998 15.3269L4.86231 15.9166C4.86147 15.9168 4.86067 15.916 4.86096 15.9152Z" fill="white"/>
<path d="M15.7749 7.23638C16.075 6.93629 16.075 6.44527 15.7749 6.14518L14.6548 5.02506C14.3548 4.72499 13.8637 4.72499 13.5636 5.02506L13.0044 5.58432C13.004 5.58474 13.004 5.58545 13.0044 5.58589L15.2141 7.79563C15.2145 7.79605 15.2152 7.79605 15.2157 7.79563L15.7749 7.23638Z" fill="white"/>
</svg>
