<svg width="60" height="60" viewBox="0 0 60 60" fill="none" xmlns="http://www.w3.org/2000/svg">
<circle cx="30" cy="30" r="30" fill="#4B8E8D"/>
<path d="M19.9182 29.8532C19.9186 29.8525 19.9195 29.8519 19.9197 29.8513L19.9259 29.8408L19.9182 29.8532Z" fill="#F5F5F5"/>
<path d="M21.4041 28.8022L21.3999 28.8029C21.4007 28.8029 21.4013 28.8029 21.4013 28.8029C21.4024 28.8022 21.4031 28.8022 21.4041 28.8022Z" fill="#F5F5F5"/>
<path d="M46.4146 30.4177L43.1977 30.1503L37.5477 22.9961C37.1037 22.278 36.355 21.568 35.3753 20.9393C35.2827 20.8809 35.1891 20.8231 35.0942 20.7677L35.7685 19.8347C35.9915 19.5259 36.1596 19.2865 36.2662 19.1336C37.8623 16.8017 36.8515 15.3895 35.7223 14.6159C35.1239 14.2072 34.5319 14 33.963 14C32.9974 14 32.1061 14.5867 31.3139 15.7439C31.1116 16.0416 30.1854 17.5123 29.368 18.8101L28.8513 19.6297L24.9006 19.6309C24.0003 19.6677 23.2484 19.823 22.6015 20.105C21.9371 20.3933 21.3515 20.8406 20.88 21.4139L17.4729 24.6494C16.8415 25.2327 16.3928 25.9432 16.1395 26.7617C15.9421 27.3981 15.882 28.0099 15.8338 28.5009L15.821 28.6299L14.9504 35.0217C14.8573 35.4233 14.8098 35.804 14.8098 36.1531C14.8069 37.2321 15.2491 37.9023 15.5125 38.2059C15.7232 38.4505 15.9349 38.6088 16.0805 38.7011C15.7603 38.9836 15.5682 39.38 15.5452 39.8126L14.8837 42.9174L14.6945 43.1941C14.4905 43.2782 14.3197 43.416 14.1977 43.5958C14.0683 43.785 13.9997 44.0057 14 44.2322C13.9997 44.6058 14.1833 44.955 14.4924 45.1669L14.5727 45.2211C14.5955 45.2375 14.6197 45.248 14.6451 45.255C14.796 45.3269 14.961 45.3642 15.1303 45.3642C15.5036 45.3642 15.8525 45.1802 16.0644 44.872C16.1885 44.6898 16.2565 44.4791 16.2612 44.2602L16.4185 44.0301C16.4185 44.0301 19.648 42.6909 19.6512 42.6897C20.1051 42.507 20.4534 42.1164 20.5903 41.6376C20.6332 41.5535 20.7896 41.2476 20.9727 40.8693C21.1411 40.522 21.2833 40.2149 21.3971 39.9515C21.4245 39.962 21.454 39.9679 21.4839 39.9679C21.4981 39.9679 21.5127 39.9667 21.5271 39.9644C21.5881 39.9527 21.6418 39.9177 21.6768 39.8663L21.9819 39.4203C22.0271 39.3537 22.0353 39.2691 22.0032 39.1949C22.002 39.1926 21.8897 38.9165 22.066 38.659L22.0838 38.6334C22.3334 38.7559 22.6001 38.8371 22.881 38.8768C22.9893 39.066 23.1224 39.2441 23.2772 39.4063C23.5977 39.745 24.3257 40.3131 25.6177 40.3131C26.2006 40.3131 26.8621 40.1928 27.5858 39.9564C28.0368 40.2985 28.5143 40.5822 29.0416 40.8233C30.2609 41.3809 31.6229 41.6576 32.9134 41.8736C33.866 42.0317 35.0561 42.1118 36.4514 42.1118C38.5751 42.1118 40.5052 41.9285 40.9314 41.8853L46.3715 42.44C46.3797 42.4411 46.3879 42.4411 46.3955 42.4411C46.4533 42.4411 46.5086 42.4201 46.5519 42.381C46.6009 42.3366 46.629 42.2742 46.629 42.2076V30.6506C46.6288 30.5285 46.536 30.4282 46.4146 30.4177ZM15.8218 36.1531C15.8218 35.8858 15.8563 35.5763 15.9421 35.2179L15.9468 35.1991L16.826 28.7491L16.8269 28.7432C16.8794 28.2108 16.9278 27.6334 17.1062 27.0624C17.2852 26.4908 17.5847 25.9256 18.1633 25.3897L18.1685 25.385L21.604 22.1215L21.619 22.1029C22.0256 21.6066 22.4708 21.2662 23.0058 21.0321C23.5395 20.7997 24.1703 20.6748 24.9368 20.6421H28.488C27.5051 22.1997 26.3141 24.0995 25.1354 25.9829L22.5213 27.986L22.34 28.3584C22.286 28.3345 22.2297 28.3088 22.1698 28.2802C21.8729 28.1413 21.5151 27.9667 21.2323 27.8277C20.9491 27.6888 20.7418 27.5848 20.7413 27.5848L20.393 28.2807C20.3939 28.2807 20.7664 28.4676 21.1943 28.676C21.2754 28.7151 21.3592 28.7559 21.4424 28.7957C21.4287 28.7992 21.4149 28.7992 21.4015 28.8027C20.776 28.9299 20.2452 29.3164 19.9197 29.8506L19.5198 30.5169H19.5195C19.3032 30.8783 19.1967 31.2817 19.197 31.6822C19.1967 32.2532 19.413 32.8201 19.829 33.2557L19.8372 33.2632L19.9446 33.3741L19.4606 34.9872C19.2156 35.3451 18.7623 36.0072 18.5808 36.2734C18.3256 36.6459 17.9012 36.6278 17.9012 36.6278L17.5959 37.0744L17.8954 37.2787C17.6729 37.483 17.4137 37.7318 17.17 37.9688C17.1025 37.9857 17.0433 37.9968 16.9983 37.9968C16.9221 37.9951 16.8611 37.9839 16.7452 37.9133L16.7189 37.8964L16.6967 37.8871L16.6603 37.8672C16.5753 37.8193 16.364 37.6804 16.1783 37.4148C15.9929 37.148 15.8233 36.758 15.8218 36.1531ZM23.9554 27.8675C23.6801 28.3077 23.4101 28.7397 23.1479 29.1578L23.1342 29.1507L23.1337 29.1519C23.0557 29.0993 22.974 29.0515 22.8893 29.0082L23.1409 28.4922L23.9554 27.8675ZM16.478 38.6531C16.4734 38.6578 16.4713 38.6601 16.4667 38.6648C16.466 38.6566 16.4611 38.6508 16.4599 38.6433C16.4661 38.6461 16.472 38.6502 16.478 38.6531ZM20.237 40.5126C20.1319 40.7298 20.035 40.9242 19.9643 41.0643C19.8937 41.2045 19.8502 41.2885 19.8502 41.2885L19.8322 41.3236L19.824 41.3627C19.7682 41.626 19.5832 41.8421 19.3318 41.9378L19.3277 41.9395L15.8807 43.3682L15.4131 44.0524L15.4376 44.1738L15.4438 44.2351C15.4438 44.2958 15.4268 44.3548 15.3892 44.4108C15.3285 44.499 15.231 44.5463 15.1303 44.5463C15.0684 44.5463 15.0082 44.5294 14.9539 44.492C14.8649 44.4307 14.8182 44.3338 14.8176 44.2328C14.8176 44.1726 14.8348 44.1131 14.8713 44.0588L14.8725 44.057C14.9232 43.9835 14.9951 43.9403 15.0766 43.9257L15.1985 43.9047L15.6495 43.2455L16.3553 39.9335L16.355 39.9019V39.8967C16.355 39.6293 16.4896 39.3806 16.7132 39.2352L16.7395 39.2177L16.7617 39.1955C16.7622 39.1949 16.9474 39.0087 17.2053 38.753C17.3244 38.7337 18.3227 37.7925 18.3925 37.7313L19.4061 38.4943H19.4055L19.6118 38.6357L20.7392 39.4075C20.6025 39.7425 20.4098 40.157 20.237 40.5126ZM22.4511 37.6827C22.6967 37.3243 22.917 37.0021 22.917 37.0021L20.2224 35.1577L20.4399 34.4314L23.3552 36.4223C23.3926 36.3668 23.4492 36.2863 23.5228 36.1835L23.8387 36.4275L24.9959 37.3243C24.2748 37.7517 23.7094 37.8947 23.2818 37.8941C22.9381 37.893 22.6686 37.8054 22.4511 37.6827ZM25.6175 39.3012C24.7515 39.2965 24.2916 38.9952 24.0088 38.7062C23.974 38.6707 23.951 38.6356 23.9221 38.6006C24.4356 38.492 25.0103 38.2485 25.6517 37.8316L26.2528 38.297C26.479 38.5889 26.7128 38.8528 26.9548 39.0944C26.4276 39.2415 25.985 39.3012 25.6175 39.3012ZM45.6171 41.3457L40.929 40.8676L40.8881 40.8722C40.8876 40.8722 40.7585 40.8856 40.5244 40.9066C39.8221 40.9708 38.1914 41.0993 36.4514 41.0993C35.2922 41.0998 34.0828 41.042 33.0792 40.8751H33.0795C31.6453 40.6357 30.4663 40.3624 29.4627 39.9024C28.4591 39.4412 27.6213 38.8001 26.8349 37.7791L26.804 37.7388L24.4176 35.8916L21.0128 33.2609L20.6423 32.9754L20.3898 32.7156L20.3921 32.7179C20.1168 32.4295 19.9755 32.0582 19.9755 31.6822C19.9755 31.4189 20.0447 31.1556 20.1877 30.9174L20.5911 30.2443L20.5832 30.2577C20.8022 29.8992 21.1499 29.6482 21.5582 29.5653L21.5617 29.5641C21.6621 29.5431 21.7611 29.5326 21.8589 29.5326C21.9908 29.5326 22.1201 29.5513 22.248 29.588L22.2594 29.591L22.2603 29.5915C22.4226 29.633 22.5781 29.7077 22.7285 29.8128L22.7483 29.8268L23.1751 30.0533L27.1655 32.1632L27.9805 32.5947L30.1982 32.4761L30.1568 31.6985L28.1542 31.8059L27.5295 31.4749L27.1562 31.2776C29.3166 28.3777 32.3908 24.1146 34.2935 21.4769C34.4754 21.5761 34.6555 21.6801 34.8292 21.791L34.8306 21.7922C35.6439 22.3082 36.3448 22.9505 36.7029 23.5518L36.7163 23.574L42.6751 31.1217L45.617 31.367V41.3457H45.6171Z" fill="#F5F5F5"/>
<path d="M16.7912 40.6101C16.6342 40.8389 16.6929 41.1519 16.9223 41.3095C17.1517 41.466 17.465 41.4076 17.6223 41.1781C17.7791 40.9486 17.7206 40.6357 17.4912 40.4781C17.2615 40.3204 16.948 40.38 16.7912 40.6101Z" fill="#F5F5F5"/>
</svg>
