<svg width="40" height="40" viewBox="0 0 40 40" fill="none" xmlns="http://www.w3.org/2000/svg">
<circle cx="20" cy="20" r="18.5" fill="black" fill-opacity="0.87" stroke="white" stroke-width="3"/>
<path d="M17.1464 28.0943C17.1464 28.0943 17.177 28.0636 17.2146 28.0261L24.4413 20.7993C24.4789 20.7618 24.5126 20.7281 24.5162 20.7244C24.5199 20.7207 24.5536 20.687 24.5912 20.6495L28.4202 16.8205C28.4208 16.8198 28.4208 16.8187 28.4202 16.818L24.1463 12.5442C24.1457 12.5435 24.1445 12.5435 24.1438 12.5442L20.3148 16.3732C20.2773 16.4107 20.2436 16.4445 20.2399 16.4481C20.2362 16.4518 20.2025 16.4855 20.165 16.5231L12.8704 23.8177C12.8701 23.8179 12.87 23.8182 12.8699 23.8185L11.0001 29.9621C10.9997 29.9634 11.0009 29.9647 11.0023 29.9643L17.054 28.1224C17.1048 28.107 17.1464 28.0943 17.1464 28.0943ZM12.3632 28.599L13.2968 25.5313C13.2972 25.5301 13.2988 25.5297 13.2997 25.5306L15.4338 27.6646C15.4347 27.6656 15.4343 27.6672 15.433 27.6675L12.3653 28.6012C12.364 28.6016 12.3627 28.6004 12.3632 28.599Z" fill="white"/>
<path d="M29.6436 14.8576C30.1188 14.3825 30.1188 13.605 29.6436 13.1299L27.8701 11.3563C27.395 10.8812 26.6176 10.8812 26.1424 11.3563L25.2569 12.2418C25.2562 12.2425 25.2562 12.2436 25.2569 12.2443L28.7557 15.7431C28.7563 15.7437 28.7574 15.7437 28.7581 15.7431L29.6436 14.8576Z" fill="white"/>
</svg>
