<svg width="40" height="40" viewBox="0 0 40 40" fill="none" xmlns="http://www.w3.org/2000/svg">
<rect x="1.5" y="1.5" width="37" height="37" rx="18.5" stroke="#4B8E8D" stroke-width="3"/>
<g clip-path="url(#clip0)">
<path d="M12.8332 17.5602H21.2291V15.8938H12.8332C12.373 15.8938 12 16.2669 12 16.727C12 17.1871 12.373 17.5602 12.8332 17.5602Z" fill="#4B8E8D"/>
<path d="M12.8332 20.9038H21.2291V19.2374H12.8332C12.373 19.2374 12 19.6105 12 20.0706C12 20.5308 12.373 20.9038 12.8332 20.9038Z" fill="#4B8E8D"/>
<path d="M12.8332 22.581V22.581C12.373 22.581 12 22.954 12 23.4142C12 23.8743 12.373 24.2474 12.8332 24.2474H18.6661C18.6002 24.0444 18.5654 23.8304 18.5654 23.6109C18.5654 23.2432 18.6618 22.8905 18.8419 22.581H12.8332Z" fill="#4B8E8D"/>
<path d="M26.6914 22.8658C26.28 22.4544 25.6128 22.4544 25.2014 22.8658L24.3363 23.731V14.7255C24.3363 14.1436 23.8645 13.6719 23.2826 13.6719C22.7007 13.6719 22.229 14.1436 22.229 14.7255V23.731L21.3639 22.8658C20.9524 22.4544 20.2853 22.4544 19.8738 22.8658C19.4623 23.2773 19.4623 23.9444 19.8738 24.3559L22.5374 27.0195C22.9481 27.4303 23.616 27.4317 24.0278 27.0195L26.6914 24.3559C27.1029 23.9444 27.1029 23.2773 26.6914 22.8658Z" fill="#4B8E8D"/>
</g>
<defs>
<clipPath id="clip0">
<rect width="15" height="15" fill="white" transform="translate(12 13)"/>
</clipPath>
</defs>
</svg>
