<svg width="40" height="40" viewBox="0 0 40 40" fill="none" xmlns="http://www.w3.org/2000/svg">
<circle cx="20" cy="20" r="18.5" fill="black" fill-opacity="0.87" stroke="white" stroke-width="3"/>
<path d="M26 17.7181C26.0003 16.1402 25.3839 14.7083 24.3889 13.6747C23.395 12.6406 22.0175 11.9998 20.5 12C18.9826 11.9998 17.605 12.6406 16.6111 13.675C15.6162 14.7083 14.9997 16.1402 15 17.7181C14.9997 18.7735 15.277 19.7645 15.7586 20.6128H15.7584C15.7589 20.6138 15.7599 20.6149 15.7604 20.6159C15.7617 20.6181 15.7625 20.6202 15.7637 20.6223L15.7642 20.6221C16.1149 21.2674 16.617 21.775 17.008 22.2436C17.205 22.4778 17.3738 22.7001 17.4871 22.9081C17.6012 23.1171 17.659 23.3035 17.6628 23.4901V26.6584C17.6631 27.6359 18.4247 28.428 19.3652 28.4283H19.6092C19.7754 28.7663 20.11 29 20.5 29C20.89 29 21.2246 28.7663 21.3908 28.4283H21.6348C22.5753 28.428 23.3369 27.6359 23.3372 26.6584V23.4904V23.4901C23.341 23.3035 23.3988 23.1171 23.5129 22.9081C23.6822 22.5953 23.9789 22.2537 24.3037 21.8816C24.6255 21.5105 24.9738 21.1063 25.236 20.6221L25.2363 20.6223C25.2373 20.6207 25.2381 20.6186 25.2391 20.617C25.2398 20.6154 25.2409 20.6143 25.2416 20.6127H25.2414C25.723 19.7645 26.0003 18.7735 26 17.7181ZM22.283 27.3322C22.1159 27.5054 21.8893 27.6112 21.6348 27.6114H19.3652C19.1107 27.6112 18.8841 27.5054 18.717 27.3322C18.5505 27.1586 18.4487 26.9227 18.4485 26.6584V26.4816L22.285 27.3296C22.2842 27.3304 22.2837 27.3314 22.283 27.3322ZM22.5515 26.6584C22.5515 26.7167 22.5446 26.773 22.5351 26.8281L18.4485 25.9248V24.8117L22.5515 25.7187V26.6584ZM22.5515 25.1616L18.4485 24.2546V23.89H22.5515V25.1616ZM24.5605 20.2059L24.5572 20.2115L24.5552 20.2152C24.2836 20.7268 23.8232 21.2063 23.4004 21.7062C23.1894 21.9577 22.9878 22.2162 22.8298 22.5042C22.7339 22.6797 22.6576 22.8706 22.6083 23.0729H18.3917C18.3423 22.8703 18.2661 22.6797 18.17 22.5042C17.9326 22.0731 17.5993 21.7046 17.2791 21.3339C16.9579 20.9653 16.6489 20.5981 16.4448 20.2152L16.4423 20.211L16.4394 20.2059C16.0241 19.4768 15.7859 18.6283 15.7857 17.7181C15.7859 16.3633 16.3128 15.1407 17.1666 14.2525C18.0209 13.3646 19.1969 12.8171 20.5 12.8169C21.8032 12.8171 22.9792 13.3646 23.8334 14.2525C24.6871 15.1406 25.214 16.3633 25.2143 17.718C25.214 18.6283 24.9759 19.4768 24.5605 20.2059Z" fill="white"/>
</svg>
