<svg width="50" height="50" viewBox="0 0 50 50" fill="none" xmlns="http://www.w3.org/2000/svg">
<rect width="50" height="50" rx="25" fill="white"/>
<rect x="1.5" y="1.5" width="47" height="47" rx="23.5" stroke="black" stroke-opacity="0.26" stroke-width="3"/>
<g clip-path="url(#clip0)">
<path d="M12.5 16.6687V34.5812H36.25V16.6687H12.5ZM13.9392 33.1418V18.1079H34.8106V33.1418H13.9392Z" fill="#4B8E8D"/>
<path d="M27.3507 22.5341L23.0614 28.1907C22.8207 28.5049 22.332 28.4977 22.1039 28.1762L20.0721 25.3144C19.8389 24.9857 19.3377 24.9857 19.1045 25.3144L15.8846 29.8483V31.6668H32.8654V28.5577L28.2983 22.5341C28.0626 22.2246 27.5864 22.2246 27.3507 22.5341Z" fill="#4B8E8D"/>
<path d="M19.2508 23.2407C20.2426 23.2407 21.0466 22.4367 21.0466 21.4449C21.0466 20.4532 20.2426 19.6492 19.2508 19.6492C18.2591 19.6492 17.4551 20.4532 17.4551 21.4449C17.4551 22.4367 18.2591 23.2407 19.2508 23.2407Z" fill="#4B8E8D"/>
</g>
<defs>
<clipPath id="clip0">
<rect x="12.5" y="13.75" width="23.75" height="23.75" fill="white"/>
</clipPath>
</defs>
</svg>
