<svg width="40" height="40" viewBox="0 0 40 40" fill="none" xmlns="http://www.w3.org/2000/svg">
<rect x="1.5" y="1.5" width="37" height="37" rx="18.5" fill="#4B8E8D" stroke="#4B8E8D" stroke-width="3"/>
<path d="M28.1628 19.5933C28.1719 19.4765 28.178 19.3588 28.178 19.2396C28.178 16.7624 26.1698 14.7542 23.6925 14.7542C22.9291 14.7542 22.2106 14.9454 21.5813 15.2818C20.9025 13.3697 19.0782 12 16.9333 12C14.2096 12 12.0015 14.208 12.0015 16.9318C12.0015 17.4438 12.0796 17.9376 12.2244 18.4019C10.3367 19.145 9 20.9831 9 23.1347C9 25.9436 11.277 28.2206 14.0859 28.2206H27.2111C27.3466 28.2333 27.4837 28.2406 27.6226 28.2406C30.02 28.2406 31.9636 26.297 31.9636 23.8995C31.9635 21.6852 30.3051 19.8594 28.1628 19.5933ZM22.9803 21.9245H22.0631C21.792 21.9245 21.5702 22.1463 21.5702 22.4174V25.0221C21.5702 25.2931 21.3484 25.515 21.0773 25.515H19.8862C19.6151 25.515 19.3933 25.2931 19.3933 25.0221V22.4174C19.3933 22.1463 19.1715 21.9245 18.9005 21.9245H17.9832C17.7121 21.9245 17.6244 21.7478 17.7882 21.5318L20.1839 18.3741C20.3477 18.1581 20.6158 18.1581 20.7797 18.3741L23.1753 21.5318C23.3392 21.7478 23.2514 21.9245 22.9803 21.9245Z" fill="white"/>
</svg>
