<svg width="40" height="40" viewBox="0 0 40 40" fill="none" xmlns="http://www.w3.org/2000/svg">
<rect x="1.5" y="1.5" width="37" height="37" rx="18.5" stroke="#A2A6A5" stroke-width="3"/>
<g clip-path="url(#clip0)">
<path d="M28.5952 19.9677C28.1717 18.9512 27.5787 17.9347 27.2399 17.5958C25.7151 19.0359 26.901 20.2218 25.7999 20.73C24.2513 21.4451 20.548 18.7817 20.548 18.7817C20.7174 18.4429 20.8021 17.7652 18.8539 17.1723C16.9698 16.5995 15.5503 15.224 13.9408 14.3769C12.3651 13.5467 10.0105 12.2896 9.62071 11.8357C9.11241 11.2428 8.18062 11.2428 8.09591 11.5816C8.07208 11.6663 8.04825 11.7748 8.02774 11.927C7.97017 12.3813 7.97017 13.2384 8.35001 15.1393C8.63853 16.5843 9.47501 19.3013 11.279 21.5722C11.2069 21.4888 11.1295 21.4077 11.0607 21.323C10.8006 22.637 10.5484 25.2603 11.2301 27.1679C11.3995 27.8455 11.9925 27.9302 12.416 27.0831C12.5457 26.8234 13.1903 25.018 13.729 23.8424C14.5668 24.3916 15.5237 24.8251 16.6124 25.0878C16.94 25.7817 17.3417 26.4637 17.8373 27.0831C19.3932 29.0285 20.8868 29.7938 21.4797 29.6244C21.8623 29.5151 21.3269 27.6036 20.7855 25.2599C23.0502 24.9178 24.8131 23.933 26.0976 23.217C26.9857 22.7256 27.6428 22.3633 28.0869 22.4242C31.0517 22.8477 32.7459 22.6783 33 20.73C31.9835 21.1536 30.2894 19.6288 28.5952 19.9677ZM8.88145 15.0331C8.76695 14.4597 8.6816 13.9514 8.62472 13.5103C10.3831 16.1558 11.8185 18.4389 15.1267 20.3912C15.1876 20.4269 15.2471 20.4593 15.308 20.4944C15.4344 21.4503 15.719 22.9403 16.3318 24.4488C10.5948 22.7617 9.04625 15.856 8.88145 15.0331ZM20.6644 24.7285C20.5096 24.0356 20.36 23.3156 20.2369 22.6002C21.855 23.0545 23.3658 23.2574 24.7575 23.3288C23.6325 23.9129 22.2798 24.4919 20.6644 24.7285Z" fill="#A2A6A5"/>
</g>
<defs>
<clipPath id="clip0">
<rect x="8" y="8" width="25" height="25" fill="white"/>
</clipPath>
</defs>
</svg>
